<?xml version="1.0" encoding="UTF-8"?>
<!DOCTYPE svg PUBLIC "-//W3C//DTD SVG 1.1//EN" "http://www.w3.org/Graphics/SVG/1.1/DTD/svg11.dtd">
<svg xmlns="http://www.w3.org/2000/svg" version="1.1" width="784px" height="162px" style="shape-rendering:geometricPrecision; text-rendering:geometricPrecision; image-rendering:optimizeQuality; fill-rule:evenodd; clip-rule:evenodd" xmlns:xlink="http://www.w3.org/1999/xlink">
<g><path style="opacity:0.02" fill="#e4ecee" d="M 65.5,33.5 C 56.1667,33.5 46.8333,33.5 37.5,33.5C 37.5,33.1667 37.5,32.8333 37.5,32.5C 45.7548,31.3656 54.0881,31.199 62.5,32C 63.7375,32.2321 64.7375,32.7321 65.5,33.5 Z"/></g>
<g><path style="opacity:0.027" fill="#ebf2f1" d="M 336.5,33.5 C 336.167,33.5 335.833,33.5 335.5,33.5C 320.5,33.5 305.5,33.5 290.5,33.5C 305.842,31.0325 321.175,31.0325 336.5,33.5 Z"/></g>
<g><path style="opacity:0.079" fill="#88c6de" d="M 389.5,31.5 C 397.507,31.3336 405.507,31.5003 413.5,32C 414.056,32.3826 414.389,32.8826 414.5,33.5C 405.833,33.5 397.167,33.5 388.5,33.5C 388.833,32.8333 389.167,32.1667 389.5,31.5 Z"/></g>
<g><path style="opacity:0.014" fill="#f2f6f3" d="M 604.5,31.5 C 604.167,32.1667 603.833,32.8333 603.5,33.5C 601.833,33.5 600.167,33.5 598.5,33.5C 599.99,31.7202 601.99,31.0535 604.5,31.5 Z"/></g>
<g><path style="opacity:0.078" fill="#8bc7de" d="M 604.5,31.5 C 609.833,31.5 615.167,31.5 620.5,31.5C 620.5,32.1667 620.5,32.8333 620.5,33.5C 614.833,33.5 609.167,33.5 603.5,33.5C 603.833,32.8333 604.167,32.1667 604.5,31.5 Z"/></g>
<g><path style="opacity:0.078" fill="#8fc8df" d="M 718.5,31.5 C 723.167,31.5 727.833,31.5 732.5,31.5C 733.5,32.1667 734.5,32.8333 735.5,33.5C 728.833,33.5 722.167,33.5 715.5,33.5C 716.5,32.8333 717.5,32.1667 718.5,31.5 Z"/></g>
<g><path style="opacity:0.01" fill="#f0f5f5" d="M 732.5,31.5 C 736.733,31.5387 740.733,32.2053 744.5,33.5C 741.5,33.5 738.5,33.5 735.5,33.5C 734.5,32.8333 733.5,32.1667 732.5,31.5 Z"/></g>
<g><path style="opacity:0.059" fill="#f1f1ef" d="M 37.5,32.5 C 37.5,32.8333 37.5,33.1667 37.5,33.5C 35.5,33.5 33.5,33.5 31.5,33.5C 31.5,35.8333 31.5,38.1667 31.5,40.5C 30.5318,38.3926 30.1984,36.0593 30.5,33.5C 28.2495,33.8186 26.2495,33.3186 24.5,32C 27.2716,29.8605 29.9382,30.0272 32.5,32.5C 33.1667,31.8333 33.8333,31.1667 34.5,30.5C 35.5178,31.1925 36.5178,31.8592 37.5,32.5 Z"/></g>
<g><path style="opacity:0.088" fill="#eef2f1" d="M 103.5,31.5 C 103.167,32.1667 102.833,32.8333 102.5,33.5C 100.833,33.5 99.1667,33.5 97.5,33.5C 99.1016,31.9261 101.102,31.2594 103.5,31.5 Z"/></g>
<g><path style="opacity:0.409" fill="#8cc7de" d="M 103.5,31.5 C 108.833,31.5 114.167,31.5 119.5,31.5C 120.5,32.1667 121.5,32.8333 122.5,33.5C 115.833,33.5 109.167,33.5 102.5,33.5C 102.833,32.8333 103.167,32.1667 103.5,31.5 Z"/></g>
<g><path style="opacity:0.024" fill="#f9fbf6" d="M 119.5,31.5 C 124.028,31.7704 128.361,32.4371 132.5,33.5C 129.167,33.5 125.833,33.5 122.5,33.5C 121.5,32.8333 120.5,32.1667 119.5,31.5 Z"/></g>
<g><path style="opacity:0.022" fill="#f8faf5" d="M 185.5,33.5 C 179.833,33.5 174.167,33.5 168.5,33.5C 163.833,33.5 159.167,33.5 154.5,33.5C 154.611,32.8826 154.944,32.3826 155.5,32C 165.663,31.931 175.663,32.431 185.5,33.5 Z"/></g>
<g><path style="opacity:0.999" fill="#1f95cb" d="M 285.5,33.5 C 286.768,39.1749 286.768,44.8416 285.5,50.5C 277.826,50.6664 270.159,50.4997 262.5,50C 261.525,44.2588 261.192,38.4254 261.5,32.5C 269.555,32.2299 277.555,32.5632 285.5,33.5 Z"/></g>
<g><path style="opacity:0.022" fill="#fbfbf5" d="M 389.5,31.5 C 389.167,32.1667 388.833,32.8333 388.5,33.5C 387.833,33.5 387.167,33.5 386.5,33.5C 384.5,33.5 382.5,33.5 380.5,33.5C 383.273,32.3428 386.273,31.6761 389.5,31.5 Z"/></g>
<g><path style="opacity:0.102" fill="#ebf1f0" d="M 439.5,31.5 C 439.167,32.1667 438.833,32.8333 438.5,33.5C 436.833,33.5 435.167,33.5 433.5,33.5C 435.102,31.9261 437.102,31.2594 439.5,31.5 Z"/></g>
<g><path style="opacity:0.541" fill="#60b5d7" d="M 439.5,31.5 C 447.5,31.5 455.5,31.5 463.5,31.5C 463.5,32.1667 463.5,32.8333 463.5,33.5C 455.196,32.6883 446.863,32.6883 438.5,33.5C 438.833,32.8333 439.167,32.1667 439.5,31.5 Z"/></g>
<g><path style="opacity:0.129" fill="#e0ebef" d="M 463.5,31.5 C 464.71,31.9321 465.71,32.5987 466.5,33.5C 465.5,33.5 464.5,33.5 463.5,33.5C 463.5,32.8333 463.5,32.1667 463.5,31.5 Z"/></g>
<g><path style="opacity:0.095" fill="#e9f1f0" d="M 525.5,33.5 C 510.5,33.5 495.5,33.5 480.5,33.5C 488.982,32.426 497.648,31.7593 506.5,31.5C 513.052,31.4696 519.386,32.1363 525.5,33.5 Z"/></g>
<g><path style="opacity:0.047" fill="#e9f1f0" d="M 620.5,31.5 C 624.387,31.6459 628.054,32.3126 631.5,33.5C 627.833,33.5 624.167,33.5 620.5,33.5C 620.5,32.8333 620.5,32.1667 620.5,31.5 Z"/></g>
<g><path style="opacity:0.025" fill="#f7faf4" d="M 663.5,33.5 C 657.833,33.5 652.167,33.5 646.5,33.5C 646.791,32.3509 647.624,31.6842 649,31.5C 653.996,32.0336 658.83,32.7003 663.5,33.5 Z"/></g>
<g><path style="opacity:0.029" fill="#fbfbf4" d="M 693.5,33.5 C 687.833,33.5 682.167,33.5 676.5,33.5C 676.167,33.5 675.833,33.5 675.5,33.5C 680.034,32.7841 684.701,32.1175 689.5,31.5C 691.026,31.9943 692.359,32.661 693.5,33.5 Z"/></g>
<g><path style="opacity:0.055" fill="#e9f0ef" d="M 718.5,31.5 C 717.5,32.1667 716.5,32.8333 715.5,33.5C 714.167,33.5 712.833,33.5 711.5,33.5C 711.611,32.8826 711.944,32.3826 712.5,32C 714.473,31.5045 716.473,31.3379 718.5,31.5 Z"/></g>
<g><path style="opacity:0.997" fill="#0292ca" d="M 37.5,33.5 C 46.8333,33.5 56.1667,33.5 65.5,33.5C 65.8333,33.5 66.1667,33.5 66.5,33.5C 70.7171,35.3681 75.2171,37.0347 80,38.5C 80.8412,44.882 82.0078,51.2153 83.5,57.5C 82.8333,59.8333 82.1667,62.1667 81.5,64.5C 81.5195,65.7261 81.8529,66.7261 82.5,67.5C 82.5,68.1667 82.5,68.8333 82.5,69.5C 82.5,69.8333 82.5,70.1667 82.5,70.5C 80.4642,72.2057 79.4642,74.539 79.5,77.5C 77.2712,78.0553 75.6046,79.3886 74.5,81.5C 78.0391,83.5348 80.2058,86.5348 81,90.5C 81.4999,105.163 81.6666,119.83 81.5,134.5C 76.8075,134.46 72.1408,134.127 67.5,133.5C 66.1667,133.5 64.8333,133.5 63.5,133.5C 62.8286,119.846 62.3286,106.179 62,92.5C 60.9887,91.6634 59.8221,91.33 58.5,91.5C 58.5,90.1667 57.8333,89.5 56.5,89.5C 55.4479,87.744 53.7812,87.0773 51.5,87.5C 51.5,102.5 51.5,117.5 51.5,132.5C 45.8333,132.5 40.1667,132.5 34.5,132.5C 34.6664,124.826 34.4997,117.159 34,109.5C 33.2828,108.956 32.7828,108.289 32.5,107.5C 32.7878,93.334 33.1211,79.1674 33.5,65C 33.497,57.7991 32.8303,50.9658 31.5,44.5C 31.5,43.1667 31.5,41.8333 31.5,40.5C 31.5,38.1667 31.5,35.8333 31.5,33.5C 33.5,33.5 35.5,33.5 37.5,33.5 Z M 43.5,51.5 C 49.2549,50.8315 54.5883,51.8315 59.5,54.5C 60.9075,58.683 61.5742,63.0164 61.5,67.5C 60.5987,68.2905 59.9321,69.2905 59.5,70.5C 58.5,70.5 57.5,70.5 56.5,70.5C 52.8333,70.5 49.1667,70.5 45.5,70.5C 45.5,66.1667 45.5,61.8333 45.5,57.5C 45.7709,55.6203 45.1042,54.287 43.5,53.5C 43.5,52.8333 43.5,52.1667 43.5,51.5 Z"/></g>
<g><path style="opacity:0.009" fill="#b8d9e7" d="M 526.5,33.5 C 527.765,34.5145 528.431,36.0145 528.5,38C 528.592,40.8211 527.926,43.3211 526.5,45.5C 526.5,41.5 526.5,37.5 526.5,33.5 Z"/></g>
<g><path style="opacity:0.738" fill="#4caad3" d="M 711.5,33.5 C 712.833,33.5 714.167,33.5 715.5,33.5C 722.167,33.5 728.833,33.5 735.5,33.5C 738.5,33.5 741.5,33.5 744.5,33.5C 746.167,33.5 747.833,33.5 749.5,33.5C 749.5,38.8333 749.5,44.1667 749.5,49.5C 749.5,51.1667 749.5,52.8333 749.5,54.5C 748.931,58.3293 749.598,61.6627 751.5,64.5C 752.267,74.8149 752.601,85.1482 752.5,95.5C 749.447,75.9114 747.781,55.9114 747.5,35.5C 736.185,34.7059 724.852,34.3725 713.5,34.5C 713.5,35.5 713.5,36.5 713.5,37.5C 712.5,37.5 711.5,37.5 710.5,37.5C 710.232,35.901 710.566,34.5676 711.5,33.5 Z"/></g>
<g><path style="opacity:0.994" fill="#0d93ca" d="M 97.5,33.5 C 99.1667,33.5 100.833,33.5 102.5,33.5C 109.167,33.5 115.833,33.5 122.5,33.5C 125.833,33.5 129.167,33.5 132.5,33.5C 133.5,33.5 134.5,33.5 135.5,33.5C 135.5,36.1667 135.5,38.8333 135.5,41.5C 134.74,52.6637 134.74,63.9971 135.5,75.5C 136.5,75.5 137.5,75.5 138.5,75.5C 138.5,77.5 138.5,79.5 138.5,81.5C 137.834,86.1547 137.501,90.9881 137.5,96C 137.506,101.216 138.173,106.049 139.5,110.5C 139.737,117.278 139.737,123.945 139.5,130.5C 139.5,131.5 139.5,132.5 139.5,133.5C 139.167,133.5 138.833,133.5 138.5,133.5C 137.167,133.5 135.833,133.5 134.5,133.5C 128.833,133.5 123.167,133.5 117.5,133.5C 118.141,123.111 117.474,113.111 115.5,103.5C 112.833,103.5 110.167,103.5 107.5,103.5C 105.952,103.821 105.285,104.821 105.5,106.5C 103.631,108.635 102.964,111.302 103.5,114.5C 103.5,115.167 103.5,115.833 103.5,116.5C 101.937,121.607 100.603,126.94 99.5,132.5C 95.5,132.5 91.5,132.5 87.5,132.5C 87.5,130.167 87.5,127.833 87.5,125.5C 89.3489,121.577 89.6822,117.577 88.5,113.5C 88.5,111.5 88.5,109.5 88.5,107.5C 89.1174,107.389 89.6174,107.056 90,106.5C 90.8119,102.311 90.6453,98.3112 89.5,94.5C 90.2986,87.1806 90.9653,79.8473 91.5,72.5C 92.6491,72.2089 93.3158,71.3756 93.5,70C 93.472,68.9302 93.1386,68.0968 92.5,67.5C 93.4465,62.2074 94.1131,56.874 94.5,51.5C 96.5969,50.1214 96.9302,48.4547 95.5,46.5C 96.0588,42.1474 96.7255,37.814 97.5,33.5 Z M 113.5,61.5 C 113.5,61.8333 113.5,62.1667 113.5,62.5C 114.024,64.3057 114.691,65.9724 115.5,67.5C 115.5,67.8333 115.5,68.1667 115.5,68.5C 115.5,73.5 115.5,78.5 115.5,83.5C 115.5,84.5 115.5,85.5 115.5,86.5C 113.901,86.2322 112.568,86.5655 111.5,87.5C 108.918,87.9746 106.918,87.3079 105.5,85.5C 105.5,82.5 105.5,79.5 105.5,76.5C 106.458,70.2564 106.791,63.923 106.5,57.5C 108.5,57.5 110.5,57.5 112.5,57.5C 112.433,58.9587 112.766,60.2921 113.5,61.5 Z"/></g>
<g><path style="opacity:0.996" fill="#0392ca" d="M 154.5,33.5 C 159.167,33.5 163.833,33.5 168.5,33.5C 174.758,35.2999 181.425,36.1333 188.5,36C 189.579,36.956 190.745,37.7894 192,38.5C 192.5,52.8295 192.667,67.1628 192.5,81.5C 189.123,81.9595 185.789,82.6261 182.5,83.5C 182.5,74.1667 182.5,64.8333 182.5,55.5C 176.991,55.8749 171.658,56.5416 166.5,57.5C 166.5,58.5 166.5,59.5 166.5,60.5C 164.564,64.7147 163.897,69.3814 164.5,74.5C 162.414,87.4271 162.081,100.427 163.5,113.5C 164.417,114.127 165.417,114.461 166.5,114.5C 167.961,113.314 169.295,113.314 170.5,114.5C 173.391,116.853 176.724,117.186 180.5,115.5C 181.251,114.624 181.751,113.624 182,112.5C 182.499,107.845 182.666,103.179 182.5,98.5C 185.777,98.2161 188.943,98.5495 192,99.5C 192.667,109.5 192.667,119.5 192,129.5C 190.174,131.074 188.007,131.907 185.5,132C 176.089,132.805 166.756,132.638 157.5,131.5C 154.518,131.037 151.518,130.704 148.5,130.5C 147.206,122.295 145.54,114.129 143.5,106C 144.287,103.901 144.62,101.734 144.5,99.5C 144.806,96.6146 144.473,93.9479 143.5,91.5C 143.5,89.8333 143.5,88.1667 143.5,86.5C 144.5,86.5 145.5,86.5 146.5,86.5C 146.824,79.6457 146.491,72.979 145.5,66.5C 145.5,59.5 145.5,52.5 145.5,45.5C 148.417,42.64 151.251,39.64 154,36.5C 154.483,35.552 154.649,34.552 154.5,33.5 Z"/></g>
<g><path style="opacity:0.996" fill="#0892ca" d="M 250.5,33.5 C 250.5,37.1667 250.5,40.8333 250.5,44.5C 251.147,62.8255 251.647,81.1588 252,99.5C 252.191,101.708 252.691,103.708 253.5,105.5C 253.5,106.833 253.5,108.167 253.5,109.5C 253.5,113.833 253.5,118.167 253.5,122.5C 253.815,126.371 253.482,130.038 252.5,133.5C 248.119,133.372 243.785,133.705 239.5,134.5C 239.5,130.167 239.5,125.833 239.5,121.5C 239.794,112.072 239.127,102.738 237.5,93.5C 232.477,94.006 227.477,94.6727 222.5,95.5C 222.183,99.7016 222.517,103.702 223.5,107.5C 223.5,110.5 223.5,113.5 223.5,116.5C 223.5,118.5 223.5,120.5 223.5,122.5C 221.598,125.337 220.931,128.671 221.5,132.5C 214.833,132.5 208.167,132.5 201.5,132.5C 200.191,99.5005 200.191,66.5005 201.5,33.5C 206.5,33.5 211.5,33.5 216.5,33.5C 217.918,35.3079 219.918,35.9746 222.5,35.5C 222.5,51.1667 222.5,66.8333 222.5,82.5C 228.631,83.0922 234.464,82.4255 240,80.5C 240.092,64.7899 239.259,49.1233 237.5,33.5C 241.733,32.2057 246.066,32.2057 250.5,33.5 Z"/></g>
<g><path style="opacity:0.996" fill="#0492ca" d="M 290.5,33.5 C 305.5,33.5 320.5,33.5 335.5,33.5C 335.178,39.358 335.511,45.0247 336.5,50.5C 336.5,51.5 336.5,52.5 336.5,53.5C 332.167,53.5 327.833,53.5 323.5,53.5C 322.849,69.2031 323.516,84.5364 325.5,99.5C 325.5,105.5 325.5,111.5 325.5,117.5C 325.5,122.5 325.5,127.5 325.5,132.5C 325.5,132.833 325.5,133.167 325.5,133.5C 317.5,133.5 309.5,133.5 301.5,133.5C 302.712,119.011 302.712,104.677 301.5,90.5C 301.5,87.1667 301.5,83.8333 301.5,80.5C 303.118,71.7031 303.618,62.7031 303,53.5C 299.943,52.5495 296.777,52.2161 293.5,52.5C 292.167,52.5 290.833,52.5 289.5,52.5C 289.5,49.1667 289.5,45.8333 289.5,42.5C 289.19,39.2869 289.523,36.2869 290.5,33.5 Z"/></g>
<g><path style="opacity:0.995" fill="#0693ca" d="M 380.5,33.5 C 382.5,33.5 384.5,33.5 386.5,33.5C 395.318,34.4933 404.318,34.8266 413.5,34.5C 415.914,49.2948 417.414,64.2948 418,79.5C 418.729,85.1604 419.896,90.4937 421.5,95.5C 421.5,96.8333 421.5,98.1667 421.5,99.5C 421.335,102.518 421.502,105.518 422,108.5C 422.232,107.263 422.732,106.263 423.5,105.5C 423.5,109.167 423.5,112.833 423.5,116.5C 422.839,118.134 422.506,119.967 422.5,122C 422.3,124.866 422.967,127.366 424.5,129.5C 424.5,131.167 424.5,132.833 424.5,134.5C 419.606,133.189 414.606,132.523 409.5,132.5C 409.666,124.826 409.5,117.159 409,109.5C 408.329,108.748 407.496,108.414 406.5,108.5C 406.5,107.5 406.5,106.5 406.5,105.5C 405.817,103.824 404.483,103.157 402.5,103.5C 401.833,103.5 401.167,103.5 400.5,103.5C 397.918,103.025 395.918,103.692 394.5,105.5C 394.5,108.5 394.5,111.5 394.5,114.5C 394.5,115.167 394.5,115.833 394.5,116.5C 393.511,121.975 393.178,127.642 393.5,133.5C 386.5,133.5 379.5,133.5 372.5,133.5C 372.827,123.652 372.494,113.986 371.5,104.5C 371.5,99.5 371.5,94.5 371.5,89.5C 372.5,89.5 373.5,89.5 374.5,89.5C 374.252,80.4596 374.585,71.4596 375.5,62.5C 375.723,55.1605 376.056,47.8271 376.5,40.5C 376.5,38.1667 376.5,35.8333 376.5,33.5C 377.833,33.5 379.167,33.5 380.5,33.5 Z M 401.5,55.5 C 402.869,57.7323 403.869,60.0656 404.5,62.5C 404.5,70.5 404.5,78.5 404.5,86.5C 401.287,86.19 398.287,86.5233 395.5,87.5C 394.732,86.7375 394.232,85.7375 394,84.5C 393.501,79.8452 393.334,75.1785 393.5,70.5C 394.488,65.3595 394.821,60.0262 394.5,54.5C 396.806,54.9926 399.139,55.3259 401.5,55.5 Z"/></g>
<g><path style="opacity:0.998" fill="#0592ca" d="M 446.5,72.5 C 446.5,73.5 446.5,74.5 446.5,75.5C 448.833,75.5 451.167,75.5 453.5,75.5C 456.5,75.5 459.5,75.5 462.5,75.5C 465.337,77.4023 468.671,78.069 472.5,77.5C 473.206,89.4869 473.539,101.487 473.5,113.5C 473.205,115.735 473.539,117.735 474.5,119.5C 474.82,122.898 474.487,126.232 473.5,129.5C 472.264,130.246 470.93,130.579 469.5,130.5C 465.432,131.134 461.598,132.467 458,134.5C 451.869,133.606 445.702,133.273 439.5,133.5C 437.784,133.371 436.117,133.038 434.5,132.5C 433.427,129.764 431.427,128.097 428.5,127.5C 428.5,126.5 428.5,125.5 428.5,124.5C 429.494,115.014 429.827,105.348 429.5,95.5C 434.57,95.7388 439.57,96.4054 444.5,97.5C 444.5,102.5 444.5,107.5 444.5,112.5C 446.735,112.795 448.735,112.461 450.5,111.5C 450.833,111.5 451.167,111.5 451.5,111.5C 452.833,111.5 454.167,111.5 455.5,111.5C 455.821,113.048 456.821,113.715 458.5,113.5C 458.5,104.833 458.5,96.1667 458.5,87.5C 449.524,86.6917 440.524,86.3584 431.5,86.5C 431.666,78.16 431.5,69.8267 431,61.5C 431.094,57.3673 430.26,53.7006 428.5,50.5C 428.5,45.8333 428.5,41.1667 428.5,36.5C 430.216,36.3713 431.883,36.038 433.5,35.5C 438.755,34.8564 444.088,34.5231 449.5,34.5C 456.291,34.2796 462.958,34.9462 469.5,36.5C 470.531,37.7003 471.365,39.0337 472,40.5C 472.5,48.8267 472.666,57.16 472.5,65.5C 467.167,65.5 461.833,65.5 456.5,65.5C 456.772,61.0983 456.439,56.7649 455.5,52.5C 445.86,49.1733 442.193,52.5066 444.5,62.5C 444.591,66.0977 445.257,69.431 446.5,72.5 Z"/></g>
<g><path style="opacity:0.997" fill="#0392ca" d="M 480.5,33.5 C 495.5,33.5 510.5,33.5 525.5,33.5C 525.609,40.1961 525.276,46.8627 524.5,53.5C 520.833,53.5 517.167,53.5 513.5,53.5C 513.5,79.8333 513.5,106.167 513.5,132.5C 506.167,132.5 498.833,132.5 491.5,132.5C 491.794,121.499 492.128,110.499 492.5,99.5C 492.828,87.3217 492.495,75.3217 491.5,63.5C 491.5,60.5 491.5,57.5 491.5,54.5C 491.389,53.8826 491.056,53.3826 490.5,53C 488.19,52.5034 485.857,52.3367 483.5,52.5C 482.167,52.5 480.833,52.5 479.5,52.5C 478.596,51.791 478.263,50.791 478.5,49.5C 480.047,47.1934 480.713,44.5267 480.5,41.5C 480.495,39.3035 480.162,37.3035 479.5,35.5C 479.328,34.5084 479.662,33.8417 480.5,33.5 Z"/></g>
<g><path style="opacity:0.996" fill="#0392ca" d="M 531.5,33.5 C 539.329,33.2328 546.996,34.2328 554.5,36.5C 552.537,51.6598 551.871,66.9932 552.5,82.5C 558.758,82.8097 564.924,82.4764 571,81.5C 571.667,74.5 571.667,67.5 571,60.5C 570.623,59.0577 569.79,58.0577 568.5,57.5C 568.5,56.5 568.5,55.5 568.5,54.5C 568.5,50.5 568.5,46.5 568.5,42.5C 568.5,39.5 568.5,36.5 568.5,33.5C 572.833,33.5 577.167,33.5 581.5,33.5C 582.479,36.6248 582.813,39.9581 582.5,43.5C 581.835,47.1515 581.501,50.9848 581.5,55C 581.51,59.229 582.177,63.0623 583.5,66.5C 583.5,73.5 583.5,80.5 583.5,87.5C 582.834,93.9914 582.5,100.658 582.5,107.5C 582.67,115.915 583.336,124.249 584.5,132.5C 584.5,132.833 584.5,133.167 584.5,133.5C 579.13,133.392 573.797,133.725 568.5,134.5C 568.5,133.5 568.5,132.5 568.5,131.5C 569.495,119.345 569.829,107.011 569.5,94.5C 563.839,94.9068 558.172,95.2401 552.5,95.5C 552.5,107.833 552.5,120.167 552.5,132.5C 545.833,132.5 539.167,132.5 532.5,132.5C 532.43,109.495 532.097,86.4953 531.5,63.5C 531.827,53.985 531.494,44.6517 530.5,35.5C 530.328,34.5084 530.662,33.8417 531.5,33.5 Z"/></g>
<g><path style="opacity:0.996" fill="#0693ca" d="M 598.5,33.5 C 600.167,33.5 601.833,33.5 603.5,33.5C 609.167,33.5 614.833,33.5 620.5,33.5C 624.167,33.5 627.833,33.5 631.5,33.5C 632.167,33.5 632.833,33.5 633.5,33.5C 635.044,36.248 635.71,39.248 635.5,42.5C 634.35,47.3158 634.184,52.3158 635,57.5C 635.706,64.5063 636.873,71.1729 638.5,77.5C 638.5,82.8333 638.5,88.1667 638.5,93.5C 637.862,102.895 638.529,111.895 640.5,120.5C 640.818,125.032 640.485,129.366 639.5,133.5C 638.167,133.5 636.833,133.5 635.5,133.5C 629.5,133.5 623.5,133.5 617.5,133.5C 617.5,132.833 617.5,132.167 617.5,131.5C 618.494,122.014 618.827,112.348 618.5,102.5C 616.265,102.205 614.265,102.539 612.5,103.5C 612.167,103.5 611.833,103.5 611.5,103.5C 610.427,104.658 609.261,104.658 608,103.5C 606.97,103.836 606.47,104.503 606.5,105.5C 604.692,106.918 604.025,108.918 604.5,111.5C 604.5,114.167 604.5,116.833 604.5,119.5C 602.584,123.718 601.584,128.385 601.5,133.5C 597.158,133.739 592.824,134.073 588.5,134.5C 588.5,132.5 588.5,130.5 588.5,128.5C 590.561,122.802 590.895,117.136 589.5,111.5C 589.5,109.833 589.5,108.167 589.5,106.5C 590.8,104.777 591.467,102.61 591.5,100C 591.496,97.6392 591.163,95.4726 590.5,93.5C 590.5,91.5 590.5,89.5 590.5,87.5C 591.5,87.5 592.5,87.5 593.5,87.5C 594.149,74.9469 595.816,62.6135 598.5,50.5C 598.333,49.1667 598.167,47.8333 598,46.5C 597.617,45.944 597.117,45.6107 596.5,45.5C 596.5,43.5 596.5,41.5 596.5,39.5C 598.256,38.4479 598.923,36.7812 598.5,34.5C 598.5,34.1667 598.5,33.8333 598.5,33.5 Z M 609.5,57.5 C 610.833,57.5 612.167,57.5 613.5,57.5C 613.993,59.8056 614.326,62.139 614.5,64.5C 614.285,66.1788 614.952,67.1788 616.5,67.5C 616.5,68.5 616.5,69.5 616.5,70.5C 617.045,76.4632 616.379,82.1299 614.5,87.5C 611.833,87.5 609.167,87.5 606.5,87.5C 606.5,85.5 606.5,83.5 606.5,81.5C 606.508,73.0916 607.508,65.0916 609.5,57.5 Z"/></g>
<g><path style="opacity:0.995" fill="#0692ca" d="M 676.5,33.5 C 682.167,33.5 687.833,33.5 693.5,33.5C 693.833,33.5 694.167,33.5 694.5,33.5C 695.637,36.4839 696.304,39.6505 696.5,43C 694.366,61.6256 694.033,80.1256 695.5,98.5C 695.5,101.167 695.5,103.833 695.5,106.5C 695.5,108.5 695.5,110.5 695.5,112.5C 693.539,119.087 692.872,126.087 693.5,133.5C 693.167,133.5 692.833,133.5 692.5,133.5C 692.167,133.5 691.833,133.5 691.5,133.5C 688.027,132.217 684.527,132.551 681,134.5C 677.961,133.179 674.794,132.346 671.5,132C 670.131,129.106 668.798,126.273 667.5,123.5C 667.5,122.167 667.5,120.833 667.5,119.5C 667.5,118.5 667.5,117.5 667.5,116.5C 668.156,115.378 668.489,114.045 668.5,112.5C 666.517,99.8616 664.684,87.195 663,74.5C 662.273,72.047 661.273,69.7136 660,67.5C 659.51,68.7932 659.343,70.1266 659.5,71.5C 660.118,92.9966 659.452,114.33 657.5,135.5C 653.143,135.586 648.81,135.92 644.5,136.5C 644.5,129.833 644.5,123.167 644.5,116.5C 645.413,89.3192 646.413,61.9859 647.5,34.5C 652.854,34.5688 658.187,34.9022 663.5,35.5C 663.89,38.8394 664.39,42.1727 665,45.5C 665.743,48.1921 666.91,50.5254 668.5,52.5C 669.674,61.2007 671.174,69.8674 673,78.5C 673.69,79.7383 674.19,79.7383 674.5,78.5C 675.338,78.8417 675.672,79.5084 675.5,80.5C 674.861,81.0968 674.528,81.9302 674.5,83C 674.684,84.3756 675.351,85.2089 676.5,85.5C 676.5,86.8333 676.5,88.1667 676.5,89.5C 677.299,92.4299 677.632,95.4299 677.5,98.5C 677.5,99.5 677.5,100.5 677.5,101.5C 678.5,101.5 679.5,101.5 680.5,101.5C 680.83,94.4684 680.497,87.4684 679.5,80.5C 678.818,79.7573 678.151,79.0906 677.5,78.5C 677.5,77.8333 677.5,77.1667 677.5,76.5C 678.648,72.0189 678.815,67.3522 678,62.5C 677.617,61.944 677.117,61.6107 676.5,61.5C 676.5,58.5 676.5,55.5 676.5,52.5C 676.5,49.5 676.5,46.5 676.5,43.5C 676.5,40.1667 676.5,36.8333 676.5,33.5 Z"/></g>
<g><path style="opacity:0.994" fill="#0b93ca" d="M 752.5,95.5 C 752.5,98.8333 752.5,102.167 752.5,105.5C 752.5,108.5 752.5,111.5 752.5,114.5C 752.5,120.833 752.5,127.167 752.5,133.5C 752.167,133.5 751.833,133.5 751.5,133.5C 750.833,133.5 750.167,133.5 749.5,133.5C 743.5,133.5 737.5,133.5 731.5,133.5C 731.737,132.209 731.404,131.209 730.5,130.5C 729.967,125.234 729.967,119.9 730.5,114.5C 730.5,110.833 730.5,107.167 730.5,103.5C 727.5,103.5 724.5,103.5 721.5,103.5C 720.504,103.414 719.671,103.748 719,104.5C 718.502,107.817 718.335,111.15 718.5,114.5C 716.656,116.279 715.99,118.612 716.5,121.5C 714.577,125.029 713.911,129.029 714.5,133.5C 710.5,133.5 706.5,133.5 702.5,133.5C 702.818,128.968 702.485,124.634 701.5,120.5C 701.5,116.5 701.5,112.5 701.5,108.5C 703.308,107.082 703.975,105.082 703.5,102.5C 703.5,100.167 703.5,97.8333 703.5,95.5C 704.975,89.1858 706.308,82.6858 707.5,76C 708.537,71.3322 708.537,66.8322 707.5,62.5C 707.5,60.1667 707.5,57.8333 707.5,55.5C 709.176,54.8166 709.843,53.4832 709.5,51.5C 709.353,46.7858 709.686,42.1191 710.5,37.5C 711.5,37.5 712.5,37.5 713.5,37.5C 713.5,36.5 713.5,35.5 713.5,34.5C 724.852,34.3725 736.185,34.7059 747.5,35.5C 747.781,55.9114 749.447,75.9114 752.5,95.5 Z M 721.5,57.5 C 723.621,57.3253 725.621,57.6586 727.5,58.5C 727.704,61.5176 728.037,64.5176 728.5,67.5C 728.025,70.0821 728.692,72.0821 730.5,73.5C 730.5,77.8333 730.5,82.1667 730.5,86.5C 726.846,86.9422 723.179,87.2756 719.5,87.5C 719.5,79.8333 719.5,72.1667 719.5,64.5C 720.167,62.1667 720.833,59.8333 721.5,57.5 Z"/></g>
<g><path style="opacity:0.208" fill="#b7d9e5" d="M 76.5,34.5 C 78.3797,34.2291 79.713,34.8958 80.5,36.5C 78.5168,36.8432 77.1834,36.1765 76.5,34.5 Z"/></g>
<g><path style="opacity:0.302" fill="#98cde1" d="M 433.5,33.5 C 433.5,34.1667 433.5,34.8333 433.5,35.5C 431.883,36.038 430.216,36.3713 428.5,36.5C 429.659,34.7497 431.326,33.7497 433.5,33.5 Z"/></g>
<g><path style="opacity:0.004" fill="#edeeed" d="M 287.5,38.5 C 288.833,39.1667 288.833,39.1667 287.5,38.5 Z"/></g>
<g><path style="opacity:0.206" fill="#9ecee1" d="M 598.5,34.5 C 598.923,36.7812 598.256,38.4479 596.5,39.5C 596.12,37.302 596.787,35.6354 598.5,34.5 Z"/></g>
<g><path style="opacity:0.043" fill="#87c5de" d="M 250.5,33.5 C 252.414,36.6843 253.08,40.351 252.5,44.5C 251.833,44.5 251.167,44.5 250.5,44.5C 250.5,40.8333 250.5,37.1667 250.5,33.5 Z"/></g>
<g><path style="opacity:0.643" fill="#71b8da" d="M 646.5,33.5 C 652.167,33.5 657.833,33.5 663.5,33.5C 665.48,34.8475 666.647,36.8475 667,39.5C 667.266,43.9808 668.099,48.3141 669.5,52.5C 669.167,52.5 668.833,52.5 668.5,52.5C 666.91,50.5254 665.743,48.1921 665,45.5C 664.39,42.1727 663.89,38.8394 663.5,35.5C 658.187,34.9022 652.854,34.5688 647.5,34.5C 646.413,61.9859 645.413,89.3192 644.5,116.5C 643.435,92.6641 643.435,68.6641 644.5,44.5C 646.414,41.3157 647.08,37.649 646.5,33.5 Z"/></g>
<g><path style="opacity:0.15" fill="#72bdda" d="M 675.5,33.5 C 675.833,33.5 676.167,33.5 676.5,33.5C 676.5,36.8333 676.5,40.1667 676.5,43.5C 675.833,43.5 675.167,43.5 674.5,43.5C 674.187,39.9581 674.521,36.6248 675.5,33.5 Z"/></g>
<g><path style="opacity:0.008" fill="#c0dce7" d="M 415.5,39.5 C 417.176,40.1834 417.843,41.5168 417.5,43.5C 416.883,43.6107 416.383,43.944 416,44.5C 415.506,42.8659 415.34,41.1992 415.5,39.5 Z"/></g>
<g><path style="opacity:0.421" fill="#95cae0" d="M 479.5,35.5 C 480.162,37.3035 480.495,39.3035 480.5,41.5C 480.713,44.5267 480.047,47.1934 478.5,49.5C 477.957,49.44 477.624,49.1067 477.5,48.5C 478.114,44.0331 478.78,39.6998 479.5,35.5 Z"/></g>
<g><path style="opacity:0.031" fill="#b5d9e6" d="M 581.5,33.5 C 577.167,33.5 572.833,33.5 568.5,33.5C 568.5,36.5 568.5,39.5 568.5,42.5C 567.833,42.5 567.167,42.5 566.5,42.5C 566.216,39.2234 566.549,36.0567 567.5,33C 572.352,32.1849 577.019,32.3516 581.5,33.5 Z"/></g>
<g><path style="opacity:0.143" fill="#8ac6de" d="M 646.5,33.5 C 647.08,37.649 646.414,41.3157 644.5,44.5C 643.92,40.351 644.586,36.6843 646.5,33.5 Z"/></g>
<g><path style="opacity:0.319" fill="#83c3de" d="M 335.5,33.5 C 335.833,33.5 336.167,33.5 336.5,33.5C 337.804,39.0673 337.804,44.734 336.5,50.5C 335.511,45.0247 335.178,39.358 335.5,33.5 Z"/></g>
<g><path style="opacity:0.333" fill="#7cbfdc" d="M 154.5,33.5 C 154.649,34.552 154.483,35.552 154,36.5C 151.251,39.64 148.417,42.64 145.5,45.5C 146.973,42.5531 148.473,39.5531 150,36.5C 151.271,35.1175 152.771,34.1175 154.5,33.5 Z"/></g>
<g><path style="opacity:0.144" fill="#90c9df" d="M 472.5,36.5 C 473.79,37.0577 474.623,38.0577 475,39.5C 475.167,44.1667 475.333,48.8333 475.5,53.5C 475.493,58.5508 474.827,63.2175 473.5,67.5C 473.76,57.1277 473.427,46.7944 472.5,36.5 Z"/></g>
<g><path style="opacity:0.897" fill="#46a7d2" d="M 596.5,45.5 C 597.117,45.6107 597.617,45.944 598,46.5C 598.167,47.8333 598.333,49.1667 598.5,50.5C 595.816,62.6135 594.149,74.9469 593.5,87.5C 592.5,87.5 591.5,87.5 590.5,87.5C 590.5,86.1667 590.5,84.8333 590.5,83.5C 592.308,82.0821 592.975,80.0821 592.5,77.5C 592.76,71.828 593.093,66.1613 593.5,60.5C 595.176,59.8166 595.843,58.4832 595.5,56.5C 595.244,52.7307 595.577,49.0641 596.5,45.5 Z"/></g>
<g><path style="opacity:0.448" fill="#84c4dd" d="M 530.5,35.5 C 531.494,44.6517 531.827,53.985 531.5,63.5C 530.833,63.5 530.167,63.5 529.5,63.5C 529.5,60.1667 529.5,56.8333 529.5,53.5C 530.241,47.5293 530.575,41.5293 530.5,35.5 Z"/></g>
<g><path style="opacity:0.067" fill="#eaefef" d="M 674.5,43.5 C 675.167,43.5 675.833,43.5 676.5,43.5C 676.5,46.5 676.5,49.5 676.5,52.5C 675.883,52.3893 675.383,52.056 675,51.5C 674.503,48.854 674.336,46.1873 674.5,43.5 Z"/></g>
<g><path style="opacity:0.302" fill="#a6d1e3" d="M 95.5,46.5 C 96.9302,48.4547 96.5969,50.1214 94.5,51.5C 94.366,49.7085 94.6993,48.0418 95.5,46.5 Z"/></g>
<g><path style="opacity:0.193" fill="#b7d8e6" d="M 289.5,42.5 C 289.5,45.8333 289.5,49.1667 289.5,52.5C 288.235,51.4855 287.569,49.9855 287.5,48C 287.667,46.5 287.833,45 288,43.5C 288.383,42.944 288.883,42.6107 289.5,42.5 Z"/></g>
<g><path style="opacity:0.016" fill="#fbf9f5" d="M 530.5,35.5 C 530.575,41.5293 530.241,47.5293 529.5,53.5C 528.475,52.6261 527.808,51.4595 527.5,50C 528.944,45.1446 529.944,40.3113 530.5,35.5 Z"/></g>
<g><path style="opacity:0.008" fill="#e9eeee" d="M 566.5,42.5 C 567.167,42.5 567.833,42.5 568.5,42.5C 568.5,46.5 568.5,50.5 568.5,54.5C 567.883,54.3893 567.383,54.056 567,53.5C 566.501,49.8484 566.335,46.1817 566.5,42.5 Z"/></g>
<g><path style="opacity:0.459" fill="#8dc7df" d="M 633.5,33.5 C 634.496,33.4142 635.329,33.7476 636,34.5C 636.963,40.465 637.463,46.465 637.5,52.5C 635.598,49.6627 634.931,46.3293 635.5,42.5C 635.71,39.248 635.044,36.248 633.5,33.5 Z"/></g>
<g><path style="opacity:0.109" fill="#6ab9da" d="M 43.5,49.5 C 48.6229,49.2913 53.6229,49.958 58.5,51.5C 59.1272,52.4168 59.4606,53.4168 59.5,54.5C 54.5883,51.8315 49.2549,50.8315 43.5,51.5C 43.5,50.8333 43.5,50.1667 43.5,49.5 Z"/></g>
<g><path style="opacity:0.292" fill="#6cb8d9" d="M 250.5,44.5 C 251.167,44.5 251.833,44.5 252.5,44.5C 253.124,64.8274 253.457,85.1608 253.5,105.5C 252.691,103.708 252.191,101.708 252,99.5C 251.647,81.1588 251.147,62.8255 250.5,44.5 Z"/></g>
<g><path style="opacity:0.318" fill="#87c3dd" d="M 285.5,33.5 C 277.555,32.5632 269.555,32.2299 261.5,32.5C 261.192,38.4254 261.525,44.2588 262.5,50C 270.159,50.4997 277.826,50.6664 285.5,50.5C 277.567,52.4684 269.234,53.135 260.5,52.5C 259.62,45.8509 259.454,39.1843 260,32.5C 260.5,32 261,31.5 261.5,31C 269.167,30.3333 276.833,30.3333 284.5,31C 285.252,31.6708 285.586,32.5041 285.5,33.5 Z"/></g>
<g><path style="opacity:0.141" fill="#46a7d2" d="M 66.5,33.5 C 69.8806,33.4595 73.2139,33.7929 76.5,34.5C 77.1834,36.1765 78.5168,36.8432 80.5,36.5C 82.0968,37.7373 83.2635,39.404 84,41.5C 84.4997,49.1594 84.6664,56.8261 84.5,64.5C 82.9519,64.8212 82.2852,65.8212 82.5,67.5C 81.8529,66.7261 81.5195,65.7261 81.5,64.5C 82.1667,62.1667 82.8333,59.8333 83.5,57.5C 82.0078,51.2153 80.8412,44.882 80,38.5C 75.2171,37.0347 70.7171,35.3681 66.5,33.5 Z"/></g>
<g><path style="opacity:0.894" fill="#4ea9d3" d="M 531.5,33.5 C 539.099,32.6164 546.766,32.4498 554.5,33C 555.469,37.7367 555.803,42.57 555.5,47.5C 554.698,48.9516 554.198,50.6183 554,52.5C 553.5,62.1609 553.334,71.8276 553.5,81.5C 558.844,81.666 564.177,81.4994 569.5,81C 570.137,78.7574 570.47,76.4241 570.5,74C 570.467,71.3897 569.8,69.223 568.5,67.5C 568.5,64.1667 568.5,60.8333 568.5,57.5C 569.79,58.0577 570.623,59.0577 571,60.5C 571.667,67.5 571.667,74.5 571,81.5C 564.924,82.4764 558.758,82.8097 552.5,82.5C 551.871,66.9932 552.537,51.6598 554.5,36.5C 546.996,34.2328 539.329,33.2328 531.5,33.5 Z"/></g>
<g><path style="opacity:0.02" fill="#56b1d6" d="M 555.5,47.5 C 555.5,58.1667 555.5,68.8333 555.5,79.5C 559.833,79.5 564.167,79.5 568.5,79.5C 568.5,75.5 568.5,71.5 568.5,67.5C 569.8,69.223 570.467,71.3897 570.5,74C 570.47,76.4241 570.137,78.7574 569.5,81C 564.177,81.4994 558.844,81.666 553.5,81.5C 553.334,71.8276 553.5,62.1609 554,52.5C 554.198,50.6183 554.698,48.9516 555.5,47.5 Z"/></g>
<g><path style="opacity:0.096" fill="#eaf0f1" d="M 749.5,49.5 C 751.223,51.78 751.889,54.4467 751.5,57.5C 750.833,56.5 750.167,55.5 749.5,54.5C 749.5,52.8333 749.5,51.1667 749.5,49.5 Z"/></g>
<g><path style="opacity:0.008" fill="#f0f5f3" d="M 289.5,52.5 C 290.833,52.5 292.167,52.5 293.5,52.5C 293.5,53.1667 293.5,53.8333 293.5,54.5C 291.517,54.8432 290.183,54.1765 289.5,52.5 Z"/></g>
<g><path style="opacity:0.012" fill="#f0f4f2" d="M 479.5,52.5 C 480.833,52.5 482.167,52.5 483.5,52.5C 483.833,53.1667 484.167,53.8333 484.5,54.5C 482.302,54.8799 480.635,54.2132 479.5,52.5 Z"/></g>
<g><path style="opacity:0.067" fill="#93c9e0" d="M 483.5,52.5 C 485.857,52.3367 488.19,52.5034 490.5,53C 491.056,53.3826 491.389,53.8826 491.5,54.5C 489.167,54.5 486.833,54.5 484.5,54.5C 484.167,53.8333 483.833,53.1667 483.5,52.5 Z"/></g>
<g><path style="opacity:0.055" fill="#f0f3f2" d="M 43.5,53.5 C 45.1042,54.287 45.7709,55.6203 45.5,57.5C 43.8235,56.8166 43.1568,55.4832 43.5,53.5 Z"/></g>
<g><path style="opacity:0.212" fill="#7ec1dd" d="M 402.5,55.5 C 402.167,55.5 401.833,55.5 401.5,55.5C 399.139,55.3259 396.806,54.9926 394.5,54.5C 394.821,60.0262 394.488,65.3595 393.5,70.5C 392.51,64.69 392.177,58.69 392.5,52.5C 394.848,52.6695 397.182,53.0029 399.5,53.5C 401.03,53.6399 402.03,54.3065 402.5,55.5 Z"/></g>
<g><path style="opacity:0.353" fill="#a7d2e3" d="M 709.5,51.5 C 709.843,53.4832 709.176,54.8166 707.5,55.5C 707.157,53.5168 707.824,52.1834 709.5,51.5 Z"/></g>
<g><path style="opacity:0.318" fill="#7dc1dd" d="M 719.5,56.5 C 721.628,55.3709 723.961,55.2042 726.5,56C 727.252,56.6708 727.586,57.5041 727.5,58.5C 725.621,57.6586 723.621,57.3253 721.5,57.5C 721.158,56.6618 720.492,56.3284 719.5,56.5 Z"/></g>
<g><path style="opacity:0.016" fill="#fdfcfb" d="M 401.5,55.5 C 401.833,55.5 402.167,55.5 402.5,55.5C 402.833,55.5 403.167,55.5 403.5,55.5C 404.369,57.717 404.702,60.0504 404.5,62.5C 403.869,60.0656 402.869,57.7323 401.5,55.5 Z"/></g>
<g><path style="opacity:0.198" fill="#c1dde8" d="M 526.5,54.5 C 523.375,55.4794 520.042,55.8128 516.5,55.5C 515.833,60.8333 515.167,66.1667 514.5,71.5C 514.5,65.8333 514.5,60.1667 514.5,54.5C 518.5,54.5 522.5,54.5 526.5,54.5 Z"/></g>
<g><path style="opacity:0.888" fill="#45a8d2" d="M 609.5,55.5 C 611.591,55.3184 613.591,55.6518 615.5,56.5C 617.141,61.373 618.141,66.373 618.5,71.5C 617.833,71.1667 617.167,70.8333 616.5,70.5C 616.5,69.5 616.5,68.5 616.5,67.5C 616.715,65.8212 616.048,64.8212 614.5,64.5C 614.326,62.139 613.993,59.8056 613.5,57.5C 612.167,57.5 610.833,57.5 609.5,57.5C 609.5,56.8333 609.5,56.1667 609.5,55.5 Z"/></g>
<g><path style="opacity:0.204" fill="#3da7d2" d="M 635.5,42.5 C 634.931,46.3293 635.598,49.6627 637.5,52.5C 637.5,55.8333 637.5,59.1667 637.5,62.5C 637.335,65.8499 637.502,69.1832 638,72.5C 638.232,71.2625 638.732,70.2625 639.5,69.5C 639.5,71.1667 639.5,72.8333 639.5,74.5C 638.596,75.209 638.263,76.209 638.5,77.5C 636.873,71.1729 635.706,64.5063 635,57.5C 634.184,52.3158 634.35,47.3158 635.5,42.5 Z"/></g>
<g><path style="opacity:0.761" fill="#73bcda" d="M 285.5,68.5 C 284.833,68.5 284.167,68.5 283.5,68.5C 283.5,65.5 283.5,62.5 283.5,59.5C 275.559,58.9194 267.892,59.5861 260.5,61.5C 260.227,59.549 260.893,58.049 262.5,57C 270.147,57.1422 277.813,57.3088 285.5,57.5C 285.5,61.1667 285.5,64.8333 285.5,68.5 Z"/></g>
<g><path style="opacity:0.827" fill="#52afd5" d="M 293.5,52.5 C 296.777,52.2161 299.943,52.5495 303,53.5C 303.618,62.7031 303.118,71.7031 301.5,80.5C 301.5,71.8333 301.5,63.1667 301.5,54.5C 298.833,54.5 296.167,54.5 293.5,54.5C 293.5,53.8333 293.5,53.1667 293.5,52.5 Z"/></g>
<g><path style="opacity:0.267" fill="#b0d6e5" d="M 595.5,56.5 C 595.843,58.4832 595.176,59.8166 593.5,60.5C 593.157,58.5168 593.824,57.1834 595.5,56.5 Z"/></g>
<g><path style="opacity:0.02" fill="#e0e9ec" d="M 719.5,56.5 C 720.492,56.3284 721.158,56.6618 721.5,57.5C 720.833,59.8333 720.167,62.1667 719.5,64.5C 719.5,61.8333 719.5,59.1667 719.5,56.5 Z"/></g>
<g><path style="opacity:0.225" fill="#7cc0dc" d="M 376.5,40.5 C 376.056,47.8271 375.723,55.1605 375.5,62.5C 374.833,62.5 374.167,62.5 373.5,62.5C 373.834,55.4929 374.334,48.4929 375,41.5C 375.383,40.944 375.883,40.6107 376.5,40.5 Z"/></g>
<g><path style="opacity:0.331" fill="#45a7d2" d="M 463.5,33.5 C 464.5,33.5 465.5,33.5 466.5,33.5C 469.393,33.0311 471.393,34.0311 472.5,36.5C 473.427,46.7944 473.76,57.1277 473.5,67.5C 467.137,67.593 460.804,67.2597 454.5,66.5C 454.5,62.5 454.5,58.5 454.5,54.5C 451.941,54.1984 449.607,54.5318 447.5,55.5C 446.235,56.5145 445.569,58.0145 445.5,60C 445.569,61.9855 446.235,63.4855 447.5,64.5C 447.5,67.1667 447.5,69.8333 447.5,72.5C 447.167,72.5 446.833,72.5 446.5,72.5C 445.257,69.431 444.591,66.0977 444.5,62.5C 442.193,52.5066 445.86,49.1733 455.5,52.5C 456.439,56.7649 456.772,61.0983 456.5,65.5C 461.833,65.5 467.167,65.5 472.5,65.5C 472.666,57.16 472.5,48.8267 472,40.5C 471.365,39.0337 470.531,37.7003 469.5,36.5C 462.958,34.9462 456.291,34.2796 449.5,34.5C 444.088,34.5231 438.755,34.8564 433.5,35.5C 433.5,34.8333 433.5,34.1667 433.5,33.5C 435.167,33.5 436.833,33.5 438.5,33.5C 446.863,32.6883 455.196,32.6883 463.5,33.5 Z"/></g>
<g><path style="opacity:0.993" fill="#0092c9" d="M 283.5,74.5 C 283.5,74.8333 283.5,75.1667 283.5,75.5C 283.5,75.8333 283.5,76.1667 283.5,76.5C 283.5,76.8333 283.5,77.1667 283.5,77.5C 282.231,87.8821 282.565,98.3821 284.5,109C 283.131,116.78 282.465,124.614 282.5,132.5C 276.167,132.5 269.833,132.5 263.5,132.5C 261.933,126.974 261.266,121.308 261.5,115.5C 261.5,104.167 261.5,92.8333 261.5,81.5C 262.67,74.5588 263.336,67.5588 263.5,60.5C 269.833,60.5 276.167,60.5 282.5,60.5C 282.181,65.3633 282.514,70.03 283.5,74.5 Z"/></g>
<g><path style="opacity:0.332" fill="#a2d0e3" d="M 609.5,55.5 C 609.5,56.1667 609.5,56.8333 609.5,57.5C 607.508,65.0916 606.508,73.0916 606.5,81.5C 605.596,80.791 605.263,79.791 605.5,78.5C 605.5,70.8333 605.5,63.1667 605.5,55.5C 606.833,55.5 608.167,55.5 609.5,55.5 Z"/></g>
<g><path style="opacity:0.909" fill="#40a6d2" d="M 43.5,49.5 C 43.5,50.1667 43.5,50.8333 43.5,51.5C 43.5,52.1667 43.5,52.8333 43.5,53.5C 43.1568,55.4832 43.8235,56.8166 45.5,57.5C 45.5,61.8333 45.5,66.1667 45.5,70.5C 46.8714,71.7868 48.7047,72.4535 51,72.5C 53.2953,72.4535 55.1286,71.7868 56.5,70.5C 57.5,70.5 58.5,70.5 59.5,70.5C 61.0481,70.1788 61.7148,69.1788 61.5,67.5C 61.5742,63.0164 60.9075,58.683 59.5,54.5C 60.4959,54.4142 61.3292,54.7476 62,55.5C 62.537,58.0934 63.3704,60.5934 64.5,63C 63.1055,65.6789 62.4388,68.5123 62.5,71.5C 56.0007,73.244 49.334,73.9107 42.5,73.5C 42.7782,66.621 42.4449,59.7877 41.5,53C 41.8082,51.5405 42.4749,50.3739 43.5,49.5 Z"/></g>
<g><path style="opacity:0.439" fill="#8bc6df" d="M 113.5,61.5 C 112.766,60.2921 112.433,58.9587 112.5,57.5C 110.5,57.5 108.5,57.5 106.5,57.5C 106.791,63.923 106.458,70.2564 105.5,76.5C 104.188,69.9622 104.188,63.2955 105.5,56.5C 108.168,55.2622 110.834,55.2622 113.5,56.5C 114.788,58.2985 114.788,59.9652 113.5,61.5 Z"/></g>
<g><path style="opacity:0.482" fill="#a3d0e3" d="M 582.5,43.5 C 583.466,51.0804 583.799,58.747 583.5,66.5C 582.177,63.0623 581.51,59.229 581.5,55C 581.501,50.9848 581.835,47.1515 582.5,43.5 Z"/></g>
<g><path style="opacity:0.492" fill="#7dbfdc" d="M 668.5,52.5 C 668.833,52.5 669.167,52.5 669.5,52.5C 671.571,61.0594 673.238,69.726 674.5,78.5C 674.19,79.7383 673.69,79.7383 673,78.5C 671.174,69.8674 669.674,61.2007 668.5,52.5 Z"/></g>
<g><path style="opacity:0.449" fill="#95cae1" d="M 113.5,62.5 C 116.634,63.1076 117.301,64.7742 115.5,67.5C 114.691,65.9724 114.024,64.3057 113.5,62.5 Z"/></g>
<g><path style="opacity:0.027" fill="#d0e2e9" d="M 136.5,60.5 C 138.344,62.2789 139.01,64.6122 138.5,67.5C 136.656,65.7211 135.99,63.3878 136.5,60.5 Z"/></g>
<g><path style="opacity:0.909" fill="#54add5" d="M 168.5,33.5 C 174.167,33.5 179.833,33.5 185.5,33.5C 189.118,33.7075 192.452,34.7075 195.5,36.5C 195.5,52.5 195.5,68.5 195.5,84.5C 190.57,84.8025 185.737,84.4692 181,83.5C 180.5,74.8397 180.334,66.1731 180.5,57.5C 175.833,57.5 171.167,57.5 166.5,57.5C 171.658,56.5416 176.991,55.8749 182.5,55.5C 182.5,64.8333 182.5,74.1667 182.5,83.5C 185.789,82.6261 189.123,81.9595 192.5,81.5C 192.667,67.1628 192.5,52.8295 192,38.5C 190.745,37.7894 189.579,36.956 188.5,36C 181.425,36.1333 174.758,35.2999 168.5,33.5 Z"/></g>
<g><path style="opacity:0.024" fill="#90c8df" d="M 447.5,55.5 C 447.5,58.5 447.5,61.5 447.5,64.5C 446.235,63.4855 445.569,61.9855 445.5,60C 445.569,58.0145 446.235,56.5145 447.5,55.5 Z"/></g>
<g><path style="opacity:0.129" fill="#76bedb" d="M 749.5,54.5 C 750.167,55.5 750.833,56.5 751.5,57.5C 751.5,59.8333 751.5,62.1667 751.5,64.5C 749.598,61.6627 748.931,58.3293 749.5,54.5 Z"/></g>
<g><path style="opacity:0.045" fill="#bedce8" d="M 84.5,64.5 C 84.8799,66.698 84.2132,68.3646 82.5,69.5C 82.5,68.8333 82.5,68.1667 82.5,67.5C 82.2852,65.8212 82.9519,64.8212 84.5,64.5 Z"/></g>
<g><path style="opacity:0.491" fill="#2da0cf" d="M 283.5,68.5 C 283.5,70.5 283.5,72.5 283.5,74.5C 282.514,70.03 282.181,65.3633 282.5,60.5C 276.167,60.5 269.833,60.5 263.5,60.5C 263.336,67.5588 262.67,74.5588 261.5,81.5C 261.167,81.5 260.833,81.5 260.5,81.5C 260.5,74.8333 260.5,68.1667 260.5,61.5C 267.892,59.5861 275.559,58.9194 283.5,59.5C 283.5,62.5 283.5,65.5 283.5,68.5 Z"/></g>
<g><path style="opacity:0.078" fill="#f2f2f1" d="M 614.5,64.5 C 616.048,64.8212 616.715,65.8212 616.5,67.5C 614.952,67.1788 614.285,66.1788 614.5,64.5 Z"/></g>
<g><path style="opacity:0.494" fill="#90c8e0" d="M 676.5,61.5 C 677.117,61.6107 677.617,61.944 678,62.5C 678.815,67.3522 678.648,72.0189 677.5,76.5C 676.555,71.5947 676.221,66.5947 676.5,61.5 Z"/></g>
<g><path style="opacity:0.006" fill="#f7fafa" d="M 706.5,67.5 C 707.01,70.3878 706.344,72.7211 704.5,74.5C 704.927,71.9902 705.593,69.6568 706.5,67.5 Z"/></g>
<g><path style="opacity:0.224" fill="#d1e7f1" d="M 61.5,67.5 C 61.7148,69.1788 61.0481,70.1788 59.5,70.5C 59.9321,69.2905 60.5987,68.2905 61.5,67.5 Z"/></g>
<g><path style="opacity:0.016" fill="#d8e7ec" d="M 283.5,68.5 C 284.167,68.5 284.833,68.5 285.5,68.5C 286.01,71.3878 285.344,73.7211 283.5,75.5C 283.5,75.1667 283.5,74.8333 283.5,74.5C 283.5,72.5 283.5,70.5 283.5,68.5 Z"/></g>
<g><path style="opacity:0.81" fill="#54add5" d="M 135.5,41.5 C 136.49,47.6446 136.823,53.9779 136.5,60.5C 135.99,63.3878 136.656,65.7211 138.5,67.5C 138.5,70.1667 138.5,72.8333 138.5,75.5C 137.5,75.5 136.5,75.5 135.5,75.5C 134.74,63.9971 134.74,52.6637 135.5,41.5 Z"/></g>
<g><path style="opacity:0.221" fill="#8cc7e0" d="M 166.5,60.5 C 166.819,65.3633 166.486,70.03 165.5,74.5C 165.167,74.5 164.833,74.5 164.5,74.5C 163.897,69.3814 164.564,64.7147 166.5,60.5 Z"/></g>
<g><path style="opacity:0.282" fill="#55afd6" d="M 336.5,53.5 C 336.389,54.1174 336.056,54.6174 335.5,55C 332.24,55.7835 329.073,55.6168 326,54.5C 325.5,69.4963 325.333,84.4963 325.5,99.5C 323.516,84.5364 322.849,69.2031 323.5,53.5C 327.833,53.5 332.167,53.5 336.5,53.5 Z"/></g>
<g><path style="opacity:0.471" fill="#5ab0d6" d="M 386.5,33.5 C 387.167,33.5 387.833,33.5 388.5,33.5C 397.167,33.5 405.833,33.5 414.5,33.5C 415.15,35.4352 415.483,37.4352 415.5,39.5C 415.34,41.1992 415.506,42.8659 416,44.5C 416.383,43.944 416.883,43.6107 417.5,43.5C 418.023,51.4903 418.356,59.4903 418.5,67.5C 418.077,69.7812 418.744,71.4479 420.5,72.5C 420.889,80.1637 421.222,87.8304 421.5,95.5C 419.896,90.4937 418.729,85.1604 418,79.5C 417.414,64.2948 415.914,49.2948 413.5,34.5C 404.318,34.8266 395.318,34.4933 386.5,33.5 Z"/></g>
<g><path style="opacity:0.008" fill="#cce1ea" d="M 418.5,67.5 C 420.213,68.6354 420.88,70.302 420.5,72.5C 418.744,71.4479 418.077,69.7812 418.5,67.5 Z"/></g>
<g><path style="opacity:0.241" fill="#9ccde1" d="M 428.5,65.5 C 430.388,67.9878 431.055,70.9878 430.5,74.5C 429.833,76.5 429.167,78.5 428.5,80.5C 428.5,75.5 428.5,70.5 428.5,65.5 Z"/></g>
<g><path style="opacity:0.282" fill="#b4d7e5" d="M 637.5,62.5 C 638.268,64.7146 638.935,67.0479 639.5,69.5C 638.732,70.2625 638.232,71.2625 638,72.5C 637.502,69.1832 637.335,65.8499 637.5,62.5 Z"/></g>
<g><path style="opacity:0.01" fill="#f6f8f5" d="M 728.5,67.5 C 730.308,68.9179 730.975,70.9179 730.5,73.5C 728.692,72.0821 728.025,70.0821 728.5,67.5 Z"/></g>
<g><path style="opacity:0.118" fill="#88c5de" d="M 31.5,44.5 C 32.8303,50.9658 33.497,57.7991 33.5,65C 33.1211,79.1674 32.7878,93.334 32.5,107.5C 31.8333,107.5 31.5,107.833 31.5,108.5C 31.2315,87.3429 31.2315,66.0096 31.5,44.5 Z"/></g>
<g><path style="opacity:0.275" fill="#aed4e4" d="M 45.5,70.5 C 49.1667,70.5 52.8333,70.5 56.5,70.5C 55.1286,71.7868 53.2953,72.4535 51,72.5C 48.7047,72.4535 46.8714,71.7868 45.5,70.5 Z"/></g>
<g><path style="opacity:0.063" fill="#b4d7e6" d="M 92.5,67.5 C 93.1386,68.0968 93.472,68.9302 93.5,70C 93.3158,71.3756 92.6491,72.2089 91.5,72.5C 91.366,70.7085 91.6993,69.0418 92.5,67.5 Z"/></g>
<g><path style="opacity:0.018" fill="#9ecfe3" d="M 373.5,62.5 C 374.089,66.9707 373.423,70.9707 371.5,74.5C 371.198,70.2095 371.864,66.2095 373.5,62.5 Z"/></g>
<g><path style="opacity:0.396" fill="#8ac5df" d="M 82.5,70.5 C 82.821,73.5769 81.821,75.9103 79.5,77.5C 79.4642,74.539 80.4642,72.2057 82.5,70.5 Z"/></g>
<g><path style="opacity:0.049" fill="#a4d0e2" d="M 446.5,72.5 C 446.833,72.5 447.167,72.5 447.5,72.5C 448.568,73.4345 449.901,73.7678 451.5,73.5C 452.167,74.1667 452.833,74.8333 453.5,75.5C 451.167,75.5 448.833,75.5 446.5,75.5C 446.5,74.5 446.5,73.5 446.5,72.5 Z"/></g>
<g><path style="opacity:0.659" fill="#79bfdb" d="M 616.5,70.5 C 617.167,70.8333 617.833,71.1667 618.5,71.5C 618.821,77.0262 618.488,82.3595 617.5,87.5C 616.5,87.5 615.5,87.5 614.5,87.5C 616.379,82.1299 617.045,76.4632 616.5,70.5 Z"/></g>
<g><path style="opacity:0.698" fill="#3ea8d2" d="M 373.5,62.5 C 374.167,62.5 374.833,62.5 375.5,62.5C 374.585,71.4596 374.252,80.4596 374.5,89.5C 373.5,89.5 372.5,89.5 371.5,89.5C 371.5,84.5 371.5,79.5 371.5,74.5C 373.423,70.9707 374.089,66.9707 373.5,62.5 Z"/></g>
<g><path style="opacity:0.092" fill="#ecf2f2" d="M 451.5,73.5 C 455.733,73.5387 459.733,74.2053 463.5,75.5C 463.167,75.5 462.833,75.5 462.5,75.5C 459.5,75.5 456.5,75.5 453.5,75.5C 452.833,74.8333 452.167,74.1667 451.5,73.5 Z"/></g>
<g><path style="opacity:0.722" fill="#62b3d7" d="M 707.5,62.5 C 708.537,66.8322 708.537,71.3322 707.5,76C 706.308,82.6858 704.975,89.1858 703.5,95.5C 703.773,88.4964 704.106,81.4964 704.5,74.5C 706.344,72.7211 707.01,70.3878 706.5,67.5C 706.216,65.5853 706.549,63.9187 707.5,62.5 Z"/></g>
<g><path style="opacity:0.539" fill="#5bb1d6" d="M 219.5,33.5 C 218.5,33.5 217.5,33.5 216.5,33.5C 211.5,33.5 206.5,33.5 201.5,33.5C 200.191,66.5005 200.191,99.5005 201.5,132.5C 208.167,132.5 214.833,132.5 221.5,132.5C 220.931,128.671 221.598,125.337 223.5,122.5C 223.5,126.167 223.5,129.833 223.5,133.5C 215.5,133.5 207.5,133.5 199.5,133.5C 199.5,123.5 199.5,113.5 199.5,103.5C 199.5,90.1667 199.5,76.8333 199.5,63.5C 199.334,53.4944 199.5,43.4944 200,33.5C 206.599,32.1739 213.099,32.1739 219.5,33.5 Z"/></g>
<g><path style="opacity:0.315" fill="#93c9df" d="M 115.5,68.5 C 117.456,74.412 118.123,80.7453 117.5,87.5C 117.167,87.5 116.833,87.5 116.5,87.5C 116.768,85.901 116.434,84.5676 115.5,83.5C 115.5,78.5 115.5,73.5 115.5,68.5 Z"/></g>
<g><path style="opacity:0.5" fill="#4cabd4" d="M 428.5,50.5 C 430.26,53.7006 431.094,57.3673 431,61.5C 431.5,69.8267 431.666,78.16 431.5,86.5C 440.524,86.3584 449.524,86.6917 458.5,87.5C 458.5,96.1667 458.5,104.833 458.5,113.5C 456.821,113.715 455.821,113.048 455.5,111.5C 457.048,111.179 457.715,110.179 457.5,108.5C 457.5,101.833 457.5,95.1667 457.5,88.5C 455.167,88.5 452.833,88.5 450.5,88.5C 443.646,88.824 436.979,88.4907 430.5,87.5C 430.5,83.1667 430.5,78.8333 430.5,74.5C 431.055,70.9878 430.388,67.9878 428.5,65.5C 428.5,60.5 428.5,55.5 428.5,50.5 Z"/></g>
<g><path style="opacity:0.718" fill="#4aa8d3" d="M 694.5,33.5 C 695.822,33.33 696.989,33.6634 698,34.5C 698.167,36.1667 698.333,37.8333 698.5,39.5C 697.624,50.1479 697.291,60.8146 697.5,71.5C 695.564,75.7147 694.897,80.3814 695.5,85.5C 695.5,89.8333 695.5,94.1667 695.5,98.5C 694.033,80.1256 694.366,61.6256 696.5,43C 696.304,39.6505 695.637,36.4839 694.5,33.5 Z"/></g>
<g><path style="opacity:0.442" fill="#78bddb" d="M 719.5,64.5 C 719.5,72.1667 719.5,79.8333 719.5,87.5C 723.179,87.2756 726.846,86.9422 730.5,86.5C 730.196,87.1499 729.863,87.8165 729.5,88.5C 725.555,89.4909 721.555,89.8242 717.5,89.5C 716.865,80.7663 717.532,72.4329 719.5,64.5 Z"/></g>
<g><path style="opacity:0.322" fill="#97cbe1" d="M 145.5,66.5 C 146.097,71.294 145.43,75.6273 143.5,79.5C 143.28,74.9 143.946,70.5667 145.5,66.5 Z"/></g>
<g><path style="opacity:0.317" fill="#93cae0" d="M 697.5,71.5 C 697.5,76.1667 697.5,80.8333 697.5,85.5C 696.833,85.5 696.167,85.5 695.5,85.5C 694.897,80.3814 695.564,75.7147 697.5,71.5 Z"/></g>
<g><path style="opacity:0.795" fill="#66b5d9" d="M 403.5,55.5 C 405.048,61.2494 406.214,67.2494 407,73.5C 407.499,78.1548 407.666,82.8215 407.5,87.5C 403.5,87.5 399.5,87.5 395.5,87.5C 398.287,86.5233 401.287,86.19 404.5,86.5C 404.5,78.5 404.5,70.5 404.5,62.5C 404.702,60.0504 404.369,57.717 403.5,55.5 Z"/></g>
<g><path style="opacity:0.087" fill="#bfdbe7" d="M 639.5,74.5 C 640.166,83.4846 640.499,92.4846 640.5,101.5C 639.833,98.8333 639.167,96.1667 638.5,93.5C 638.5,88.1667 638.5,82.8333 638.5,77.5C 638.263,76.209 638.596,75.209 639.5,74.5 Z"/></g>
<g><path style="opacity:0.2" fill="#c4dfe9" d="M 199.5,63.5 C 199.5,76.8333 199.5,90.1667 199.5,103.5C 198.039,96.7243 197.372,89.7243 197.5,82.5C 197.32,75.928 197.986,69.5946 199.5,63.5 Z"/></g>
<g><path style="opacity:0.773" fill="#34a4d1" d="M 216.5,33.5 C 217.5,33.5 218.5,33.5 219.5,33.5C 220.833,33.5 222.167,33.5 223.5,33.5C 223.5,44.8333 223.5,56.1667 223.5,67.5C 223.5,71.5 223.5,75.5 223.5,79.5C 225.571,80.8086 228.071,81.4752 231,81.5C 233.929,81.4752 236.429,80.8086 238.5,79.5C 238.5,77.5 238.5,75.5 238.5,73.5C 239.126,66.4163 238.459,59.7496 236.5,53.5C 236.793,47.1067 236.46,40.7734 235.5,34.5C 235.957,33.7025 236.624,33.3691 237.5,33.5C 239.259,49.1233 240.092,64.7899 240,80.5C 234.464,82.4255 228.631,83.0922 222.5,82.5C 222.5,66.8333 222.5,51.1667 222.5,35.5C 219.918,35.9746 217.918,35.3079 216.5,33.5 Z"/></g>
<g><path style="opacity:0.419" fill="#77bfdb" d="M 223.5,79.5 C 224.167,79.5 224.833,79.5 225.5,79.5C 229.833,79.5 234.167,79.5 238.5,79.5C 236.429,80.8086 233.929,81.4752 231,81.5C 228.071,81.4752 225.571,80.8086 223.5,79.5 Z"/></g>
<g><path style="opacity:0.008" fill="#f4f4f0" d="M 223.5,67.5 C 224.167,67.5 224.833,67.5 225.5,67.5C 225.5,71.5 225.5,75.5 225.5,79.5C 224.833,79.5 224.167,79.5 223.5,79.5C 223.5,75.5 223.5,71.5 223.5,67.5 Z"/></g>
<g><path style="opacity:0.012" fill="#aed5e6" d="M 236.5,53.5 C 238.459,59.7496 239.126,66.4163 238.5,73.5C 236.799,67.0812 236.133,60.4146 236.5,53.5 Z"/></g>
<g><path style="opacity:0.245" fill="#b1d5e4" d="M 223.5,33.5 C 225.478,44.4507 226.144,55.784 225.5,67.5C 224.833,67.5 224.167,67.5 223.5,67.5C 223.5,56.1667 223.5,44.8333 223.5,33.5 Z"/></g>
<g><path style="opacity:0.041" fill="#ebf2f3" d="M 430.5,74.5 C 430.5,78.8333 430.5,83.1667 430.5,87.5C 429.883,87.3893 429.383,87.056 429,86.5C 428.505,84.5273 428.338,82.5273 428.5,80.5C 429.167,78.5 429.833,76.5 430.5,74.5 Z"/></g>
<g><path style="opacity:0.286" fill="#b6d8e7" d="M 592.5,77.5 C 592.975,80.0821 592.308,82.0821 590.5,83.5C 590.054,80.9899 590.72,78.9899 592.5,77.5 Z"/></g>
<g><path style="opacity:0.135" fill="#c0dfeb" d="M 260.5,81.5 C 260.833,81.5 261.167,81.5 261.5,81.5C 261.5,92.8333 261.5,104.167 261.5,115.5C 261.167,115.5 260.833,115.5 260.5,115.5C 259.167,104.167 259.167,92.8333 260.5,81.5 Z"/></g>
<g><path style="opacity:0.208" fill="#b9d9e5" d="M 675.5,80.5 C 676.301,82.0418 676.634,83.7085 676.5,85.5C 676.634,83.7085 676.301,82.0418 675.5,80.5 Z"/></g>
<g><path style="opacity:0.404" fill="#9ccde2" d="M 491.5,63.5 C 492.495,75.3217 492.828,87.3217 492.5,99.5C 491.833,102.5 491.167,105.5 490.5,108.5C 490.184,93.4219 490.517,78.4219 491.5,63.5 Z"/></g>
<g><path style="opacity:0.345" fill="#93c9e0" d="M 78.5,82.5 C 81.7794,83.0306 83.1128,85.0306 82.5,88.5C 80.9899,86.678 79.6566,84.678 78.5,82.5 Z"/></g>
<g><path style="opacity:0.467" fill="#47acd4" d="M 145.5,66.5 C 146.491,72.979 146.824,79.6457 146.5,86.5C 145.5,86.5 144.5,86.5 143.5,86.5C 143.5,84.1667 143.5,81.8333 143.5,79.5C 145.43,75.6273 146.097,71.294 145.5,66.5 Z"/></g>
<g><path style="opacity:0.006" fill="#f8f9f8" d="M 115.5,83.5 C 116.434,84.5676 116.768,85.901 116.5,87.5C 114.833,87.5 113.167,87.5 111.5,87.5C 112.568,86.5655 113.901,86.2322 115.5,86.5C 115.5,85.5 115.5,84.5 115.5,83.5 Z"/></g>
<g><path style="opacity:0.717" fill="#47aad3" d="M 677.5,78.5 C 678.151,79.0906 678.818,79.7573 679.5,80.5C 680.497,87.4684 680.83,94.4684 680.5,101.5C 679.5,101.5 678.5,101.5 677.5,101.5C 677.5,100.5 677.5,99.5 677.5,98.5C 678.748,97.6661 679.415,96.3328 679.5,94.5C 679.276,92.5453 678.609,90.8787 677.5,89.5C 677.5,85.8333 677.5,82.1667 677.5,78.5 Z"/></g>
<g><path style="opacity:0.243" fill="#c0dce7" d="M 283.5,76.5 C 285.43,80.3727 286.097,84.706 285.5,89.5C 283.577,85.9707 282.911,81.9707 283.5,77.5C 283.5,77.1667 283.5,76.8333 283.5,76.5 Z"/></g>
<g><path style="opacity:0.408" fill="#46abd3" d="M 605.5,78.5 C 605.263,79.791 605.596,80.791 606.5,81.5C 606.5,83.5 606.5,85.5 606.5,87.5C 609.167,87.5 611.833,87.5 614.5,87.5C 615.5,87.5 616.5,87.5 617.5,87.5C 613.285,89.4364 608.619,90.1031 603.5,89.5C 602.92,85.351 603.586,81.6843 605.5,78.5 Z"/></g>
<g><path style="opacity:0.624" fill="#4fafd5" d="M 105.5,85.5 C 106.918,87.3079 108.918,87.9746 111.5,87.5C 113.167,87.5 114.833,87.5 116.5,87.5C 116.833,87.5 117.167,87.5 117.5,87.5C 117.389,88.1174 117.056,88.6174 116.5,89C 112.179,89.499 107.846,89.6657 103.5,89.5C 103.157,87.5168 103.824,86.1834 105.5,85.5 Z"/></g>
<g><path style="opacity:0.048" fill="#f3f6f5" d="M 450.5,88.5 C 452.833,88.5 455.167,88.5 457.5,88.5C 457.5,95.1667 457.5,101.833 457.5,108.5C 456.833,102.5 456.167,96.5 455.5,90.5C 453.833,89.8333 452.167,89.1667 450.5,88.5 Z"/></g>
<g><path style="opacity:0.742" fill="#56aed5" d="M 667.5,116.5 C 667.158,115.662 666.492,115.328 665.5,115.5C 665.034,109.509 664.701,103.509 664.5,97.5C 664.843,95.5168 664.176,94.1834 662.5,93.5C 662.5,90.5 662.5,87.5 662.5,84.5C 662.167,81.8333 661.833,79.1667 661.5,76.5C 661.5,75.8333 661.5,75.1667 661.5,74.5C 661.573,72.9731 660.906,71.9731 659.5,71.5C 659.343,70.1266 659.51,68.7932 660,67.5C 661.273,69.7136 662.273,72.047 663,74.5C 664.684,87.195 666.517,99.8616 668.5,112.5C 668.489,114.045 668.156,115.378 667.5,116.5 Z"/></g>
<g><path style="opacity:0.495" fill="#5db4d8" d="M 56.5,89.5 C 57.8333,89.5 58.5,90.1667 58.5,91.5C 57.1779,91.67 56.0113,91.3366 55,90.5C 54.5002,101.495 54.3335,112.495 54.5,123.5C 52.5216,112.215 51.8549,100.548 52.5,88.5C 53.9587,88.4326 55.2921,88.7659 56.5,89.5 Z"/></g>
<g><path style="opacity:0.146" fill="#9bcde1" d="M 165.5,89.5 C 165.5,95.8333 165.5,102.167 165.5,108.5C 164.182,105.742 163.515,102.576 163.5,99C 163.515,95.4242 164.182,92.2575 165.5,89.5 Z"/></g>
<g><path style="opacity:0.02" fill="#6bbada" d="M 516.5,55.5 C 516.5,72.8333 516.5,90.1667 516.5,107.5C 514.521,95.8799 513.854,83.8799 514.5,71.5C 515.167,66.1667 515.833,60.8333 516.5,55.5 Z"/></g>
<g><path style="opacity:0.105" fill="#cde2ea" d="M 695.5,85.5 C 696.167,85.5 696.833,85.5 697.5,85.5C 697.741,92.7299 697.075,99.7299 695.5,106.5C 695.5,103.833 695.5,101.167 695.5,98.5C 695.5,94.1667 695.5,89.8333 695.5,85.5 Z"/></g>
<g><path style="opacity:0.74" fill="#54acd4" d="M 79.5,77.5 C 79.3713,79.2161 79.038,80.8828 78.5,82.5C 79.6566,84.678 80.9899,86.678 82.5,88.5C 82.5,89.1667 82.5,89.8333 82.5,90.5C 82.5,96.8333 82.5,103.167 82.5,109.5C 82.5,115.5 82.5,121.5 82.5,127.5C 82.5,130.167 82.5,132.833 82.5,135.5C 77.6594,136.532 72.6594,136.532 67.5,135.5C 67.5,134.833 67.5,134.167 67.5,133.5C 72.1408,134.127 76.8075,134.46 81.5,134.5C 81.6666,119.83 81.4999,105.163 81,90.5C 80.2058,86.5348 78.0391,83.5348 74.5,81.5C 75.6046,79.3886 77.2712,78.0553 79.5,77.5 Z"/></g>
<g><path style="opacity:0.067" fill="#87c5de" d="M 82.5,90.5 C 84.4563,96.412 85.1229,102.745 84.5,109.5C 83.8333,109.5 83.1667,109.5 82.5,109.5C 82.5,103.167 82.5,96.8333 82.5,90.5 Z"/></g>
<g><path style="opacity:0.738" fill="#54afd5" d="M 462.5,75.5 C 462.833,75.5 463.167,75.5 463.5,75.5C 467.548,75.3946 471.548,75.7279 475.5,76.5C 475.5,88.8333 475.5,101.167 475.5,113.5C 474.833,113.5 474.167,113.5 473.5,113.5C 473.539,101.487 473.206,89.4869 472.5,77.5C 468.671,78.069 465.337,77.4023 462.5,75.5 Z"/></g>
<g><path style="opacity:0.031" fill="#faf9f5" d="M 662.5,93.5 C 664.176,94.1834 664.843,95.5168 664.5,97.5C 662.896,96.713 662.229,95.3797 662.5,93.5 Z"/></g>
<g><path style="opacity:0.647" fill="#39a5d1" d="M 164.5,74.5 C 164.833,74.5 165.167,74.5 165.5,74.5C 165.5,79.5 165.5,84.5 165.5,89.5C 164.182,92.2575 163.515,95.4242 163.5,99C 163.515,102.576 164.182,105.742 165.5,108.5C 165.325,110.621 165.659,112.621 166.5,114.5C 165.417,114.461 164.417,114.127 163.5,113.5C 162.081,100.427 162.414,87.4271 164.5,74.5 Z"/></g>
<g><path style="opacity:0.226" fill="#98cbe1" d="M 441.5,94.5 C 443.483,94.1568 444.817,94.8235 445.5,96.5C 443.517,96.8432 442.183,96.1765 441.5,94.5 Z"/></g>
<g><path style="opacity:0.133" fill="#bddae6" d="M 676.5,89.5 C 676.833,89.5 677.167,89.5 677.5,89.5C 678.609,90.8787 679.276,92.5453 679.5,94.5C 679.415,96.3328 678.748,97.6661 677.5,98.5C 677.632,95.4299 677.299,92.4299 676.5,89.5 Z"/></g>
<g><path style="opacity:0.004" fill="#d7e7ee" d="M 445.5,96.5 C 446.117,96.6107 446.617,96.944 447,97.5C 447.499,101.486 447.666,105.486 447.5,109.5C 449.483,109.157 450.817,109.824 451.5,111.5C 451.167,111.5 450.833,111.5 450.5,111.5C 448.833,111.5 447.167,111.5 445.5,111.5C 445.5,106.5 445.5,101.5 445.5,96.5 Z"/></g>
<g><path style="opacity:0.041" fill="#e6ebed" d="M 660.5,76.5 C 660.833,76.5 661.167,76.5 661.5,76.5C 661.833,79.1667 662.167,81.8333 662.5,84.5C 661.506,94.3194 661.173,104.319 661.5,114.5C 660.505,102.011 660.171,89.3443 660.5,76.5 Z"/></g>
<g><path style="opacity:0.482" fill="#9fcfe2" d="M 143.5,91.5 C 144.473,93.9479 144.806,96.6146 144.5,99.5C 143.833,99.8333 143.167,100.167 142.5,100.5C 142.264,97.3915 142.597,94.3915 143.5,91.5 Z"/></g>
<g><path style="opacity:0.579" fill="#82c2dc" d="M 138.5,81.5 C 139.473,91.0838 139.806,100.75 139.5,110.5C 138.173,106.049 137.506,101.216 137.5,96C 137.501,90.9881 137.834,86.1547 138.5,81.5 Z"/></g>
<g><path style="opacity:0.306" fill="#2aa0cf" d="M 239.5,121.5 C 239.131,117.232 238.131,113.232 236.5,109.5C 236.5,105.167 236.5,100.833 236.5,96.5C 232.833,96.5 229.167,96.5 225.5,96.5C 223.586,99.6843 222.92,103.351 223.5,107.5C 222.517,103.702 222.183,99.7016 222.5,95.5C 227.477,94.6727 232.477,94.006 237.5,93.5C 239.127,102.738 239.794,112.072 239.5,121.5 Z"/></g>
<g><path style="opacity:0.655" fill="#55aed5" d="M 193.5,99.5 C 193.5,109.833 193.5,120.167 193.5,130.5C 191.76,132.556 189.427,133.889 186.5,134.5C 181.208,135.495 175.875,135.828 170.5,135.5C 166.627,133.57 162.294,132.903 157.5,133.5C 157.5,132.833 157.5,132.167 157.5,131.5C 166.756,132.638 176.089,132.805 185.5,132C 188.007,131.907 190.174,131.074 192,129.5C 192.667,119.5 192.667,109.5 192,99.5C 188.943,98.5495 185.777,98.2161 182.5,98.5C 182.666,103.179 182.499,107.845 182,112.5C 181.751,113.624 181.251,114.624 180.5,115.5C 176.724,117.186 173.391,116.853 170.5,114.5C 173.247,114.813 175.914,114.48 178.5,113.5C 179.167,108.167 179.833,102.833 180.5,97.5C 184.783,96.5078 189.116,96.1744 193.5,96.5C 193.5,97.5 193.5,98.5 193.5,99.5 Z"/></g>
<g><path style="opacity:0.012" fill="#bad9e6" d="M 455.5,90.5 C 456.167,96.5 456.833,102.5 457.5,108.5C 457.715,110.179 457.048,111.179 455.5,111.5C 455.5,104.5 455.5,97.5 455.5,90.5 Z"/></g>
<g><path style="opacity:0.59" fill="#7dc0dc" d="M 89.5,94.5 C 90.6453,98.3112 90.8119,102.311 90,106.5C 89.6174,107.056 89.1174,107.389 88.5,107.5C 88.2307,103.069 88.564,98.7352 89.5,94.5 Z"/></g>
<g><path style="opacity:0.122" fill="#eff3f5" d="M 107.5,103.5 C 110.167,103.5 112.833,103.5 115.5,103.5C 115.5,103.833 115.5,104.167 115.5,104.5C 112.67,105.459 110.004,105.126 107.5,103.5 Z"/></g>
<g><path style="opacity:0.081" fill="#e9eff1" d="M 721.5,103.5 C 724.5,103.5 727.5,103.5 730.5,103.5C 730.5,107.167 730.5,110.833 730.5,114.5C 729.883,114.389 729.383,114.056 729,113.5C 728.503,110.854 728.336,108.187 728.5,105.5C 725.848,105.59 723.515,104.924 721.5,103.5 Z"/></g>
<g><path style="opacity:0.02" fill="#dde9ed" d="M 400.5,103.5 C 399.01,105.28 397.01,105.946 394.5,105.5C 395.918,103.692 397.918,103.025 400.5,103.5 Z"/></g>
<g><path style="opacity:0.004" fill="#f1f5f7" d="M 402.5,103.5 C 404.483,103.157 405.817,103.824 406.5,105.5C 404.847,105.34 403.514,104.674 402.5,103.5 Z"/></g>
<g><path style="opacity:0.013" fill="#f2f6f6" d="M 611.5,103.5 C 611.833,103.5 612.167,103.5 612.5,103.5C 614.483,103.157 615.817,103.824 616.5,105.5C 614.302,105.88 612.635,105.213 611.5,103.5 Z"/></g>
<g><path style="opacity:0.898" fill="#63b4d8" d="M 590.5,93.5 C 591.163,95.4726 591.496,97.6392 591.5,100C 591.467,102.61 590.8,104.777 589.5,106.5C 589.182,101.968 589.515,97.6344 590.5,93.5 Z"/></g>
<g><path style="opacity:0.227" fill="#6eb9d9" d="M 144.5,99.5 C 144.62,101.734 144.287,103.901 143.5,106C 145.54,114.129 147.206,122.295 148.5,130.5C 147.5,130.5 146.5,130.5 145.5,130.5C 143.462,120.629 142.462,110.629 142.5,100.5C 143.167,100.167 143.833,99.8333 144.5,99.5 Z"/></g>
<g><path style="opacity:0.033" fill="#a9d2e3" d="M 193.5,99.5 C 194.828,104.288 195.495,109.454 195.5,115C 195.495,120.546 194.828,125.712 193.5,130.5C 193.5,120.167 193.5,109.833 193.5,99.5 Z"/></g>
<g><path style="opacity:0.012" fill="#bad9e7" d="M 301.5,90.5 C 302.128,97.9131 301.461,104.913 299.5,111.5C 299.334,104.825 299.5,98.1583 300,91.5C 300.383,90.944 300.883,90.6107 301.5,90.5 Z"/></g>
<g><path style="opacity:0.008" fill="#a4d1e3" d="M 583.5,88.5 C 585.239,95.588 585.906,102.921 585.5,110.5C 583.537,103.576 582.87,96.2428 583.5,88.5 Z"/></g>
<g><path style="opacity:0.004" fill="#b3d8e7" d="M 606.5,105.5 C 606.405,107.786 605.738,109.786 604.5,111.5C 604.025,108.918 604.692,106.918 606.5,105.5 Z"/></g>
<g><path style="opacity:0.047" fill="#b7d8e6" d="M 703.5,102.5 C 703.975,105.082 703.308,107.082 701.5,108.5C 701.054,105.99 701.72,103.99 703.5,102.5 Z"/></g>
<g><path style="opacity:0.011" fill="#f5f8f6" d="M 225.5,96.5 C 225.706,103.396 225.039,110.063 223.5,116.5C 223.5,113.5 223.5,110.5 223.5,107.5C 222.92,103.351 223.586,99.6843 225.5,96.5 Z"/></g>
<g><path style="opacity:0.31" fill="#b2d6e5" d="M 421.5,99.5 C 423.28,100.99 423.946,102.99 423.5,105.5C 422.732,106.263 422.232,107.263 422,108.5C 421.502,105.518 421.335,102.518 421.5,99.5 Z"/></g>
<g><path style="opacity:0.54" fill="#36a4d1" d="M 529.5,63.5 C 530.167,63.5 530.833,63.5 531.5,63.5C 532.097,86.4953 532.43,109.495 532.5,132.5C 539.167,132.5 545.833,132.5 552.5,132.5C 552.5,120.167 552.5,107.833 552.5,95.5C 558.172,95.2401 563.839,94.9068 569.5,94.5C 569.829,107.011 569.495,119.345 568.5,131.5C 568.5,124.167 568.5,116.833 568.5,109.5C 568.5,104.833 568.5,100.167 568.5,95.5C 567.209,95.2627 566.209,95.596 565.5,96.5C 562.167,96.5 558.833,96.5 555.5,96.5C 555.5,102.5 555.5,108.5 555.5,114.5C 554.698,113.048 554.198,111.382 554,109.5C 553.5,117.493 553.334,125.493 553.5,133.5C 546.167,133.5 538.833,133.5 531.5,133.5C 532.143,122.448 531.476,111.781 529.5,101.5C 529.5,88.8333 529.5,76.1667 529.5,63.5 Z"/></g>
<g><path style="opacity:0.031" fill="#97cbe1" d="M 565.5,96.5 C 566.209,95.596 567.209,95.2627 568.5,95.5C 568.5,100.167 568.5,104.833 568.5,109.5C 567.833,109.5 567.167,109.5 566.5,109.5C 566.818,104.968 566.485,100.634 565.5,96.5 Z"/></g>
<g><path style="opacity:0.004" fill="#edeeed" d="M 556.5,97.5 C 557.833,98.1667 557.833,98.1667 556.5,97.5 Z"/></g>
<g><path style="opacity:0.043" fill="#aed4e4" d="M 82.5,109.5 C 83.1667,109.5 83.8333,109.5 84.5,109.5C 84.5,115.167 84.5,120.833 84.5,126.5C 83.8333,126.833 83.1667,127.167 82.5,127.5C 82.5,121.5 82.5,115.5 82.5,109.5 Z"/></g>
<g><path style="opacity:0.02" fill="#cde2ea" d="M 105.5,106.5 C 105.663,108.857 105.497,111.19 105,113.5C 104.617,114.056 104.117,114.389 103.5,114.5C 102.964,111.302 103.631,108.635 105.5,106.5 Z"/></g>
<g><path style="opacity:0.082" fill="#e8eff1" d="M 752.5,105.5 C 753.29,106.609 753.79,107.942 754,109.5C 754.499,113.821 754.666,118.154 754.5,122.5C 753.833,119.833 753.167,117.167 752.5,114.5C 752.5,111.5 752.5,108.5 752.5,105.5 Z"/></g>
<g><path style="opacity:0.008" fill="#e8eeef" d="M 253.5,109.5 C 254.117,109.611 254.617,109.944 255,110.5C 255.495,112.473 255.662,114.473 255.5,116.5C 254.833,118.5 254.167,120.5 253.5,122.5C 253.5,118.167 253.5,113.833 253.5,109.5 Z"/></g>
<g><path style="opacity:0.963" fill="#2da1d0" d="M 56.5,89.5 C 55.2921,88.7659 53.9587,88.4326 52.5,88.5C 51.8549,100.548 52.5216,112.215 54.5,123.5C 54.8128,127.042 54.4794,130.375 53.5,133.5C 46.5,133.5 39.5,133.5 32.5,133.5C 31.5073,125.35 31.1739,117.017 31.5,108.5C 31.5,107.833 31.8333,107.5 32.5,107.5C 32.7828,108.289 33.2828,108.956 34,109.5C 34.4997,117.159 34.6664,124.826 34.5,132.5C 40.1667,132.5 45.8333,132.5 51.5,132.5C 51.5,117.5 51.5,102.5 51.5,87.5C 53.7812,87.0773 55.4479,87.744 56.5,89.5 Z"/></g>
<g><path style="opacity:0.288" fill="#6fb9da" d="M 58.5,91.5 C 59.8221,91.33 60.9887,91.6634 62,92.5C 62.3286,106.179 62.8286,119.846 63.5,133.5C 63.1667,133.5 62.8333,133.5 62.5,133.5C 61.1874,120.686 60.354,107.686 60,94.5C 58.9614,93.7562 58.4614,92.7562 58.5,91.5 Z"/></g>
<g><path style="opacity:0.963" fill="#33a2d0" d="M 406.5,108.5 C 407.496,108.414 408.329,108.748 409,109.5C 409.5,117.159 409.666,124.826 409.5,132.5C 414.606,132.523 419.606,133.189 424.5,134.5C 420.03,135.486 415.363,135.819 410.5,135.5C 408.658,131.26 407.325,126.926 406.5,122.5C 406.5,117.833 406.5,113.167 406.5,108.5 Z"/></g>
<g><path style="opacity:0.233" fill="#5db4d7" d="M 638.5,93.5 C 639.167,96.1667 639.833,98.8333 640.5,101.5C 640.5,107.833 640.5,114.167 640.5,120.5C 638.529,111.895 637.862,102.895 638.5,93.5 Z"/></g>
<g><path style="opacity:0.289" fill="#a3d0e3" d="M 115.5,103.5 C 117.474,113.111 118.141,123.111 117.5,133.5C 116.698,132.048 116.198,130.382 116,128.5C 115.5,120.507 115.334,112.507 115.5,104.5C 115.5,104.167 115.5,103.833 115.5,103.5 Z"/></g>
<g><path style="opacity:0.337" fill="#67b5d8" d="M 441.5,94.5 C 442.183,96.1765 443.517,96.8432 445.5,96.5C 445.5,101.5 445.5,106.5 445.5,111.5C 447.167,111.5 448.833,111.5 450.5,111.5C 448.735,112.461 446.735,112.795 444.5,112.5C 444.5,107.5 444.5,102.5 444.5,97.5C 439.57,96.4054 434.57,95.7388 429.5,95.5C 429.827,105.348 429.494,115.014 428.5,124.5C 427.213,114.209 427.213,103.876 428.5,93.5C 432.824,93.9272 437.158,94.2605 441.5,94.5 Z"/></g>
<g><path style="opacity:0.008" fill="#b2d7e6" d="M 555.5,114.5 C 555.666,119.844 555.499,125.177 555,130.5C 554.79,132.058 554.29,133.391 553.5,134.5C 553.5,134.167 553.5,133.833 553.5,133.5C 553.334,125.493 553.5,117.493 554,109.5C 554.198,111.382 554.698,113.048 555.5,114.5 Z"/></g>
<g><path style="opacity:0.438" fill="#3fa8d2" d="M 583.5,87.5 C 583.5,87.8333 583.5,88.1667 583.5,88.5C 582.87,96.2428 583.537,103.576 585.5,110.5C 585.5,117.833 585.5,125.167 585.5,132.5C 585.167,132.5 584.833,132.5 584.5,132.5C 583.336,124.249 582.67,115.915 582.5,107.5C 582.5,100.658 582.834,93.9914 583.5,87.5 Z"/></g>
<g><path style="opacity:0.237" fill="#b9d9e6" d="M 589.5,111.5 C 589.975,114.082 589.308,116.082 587.5,117.5C 587.054,114.99 587.72,112.99 589.5,111.5 Z"/></g>
<g><path style="opacity:0.634" fill="#3ea7d2" d="M 589.5,111.5 C 590.895,117.136 590.561,122.802 588.5,128.5C 588.167,128.5 587.833,128.5 587.5,128.5C 587.5,124.833 587.5,121.167 587.5,117.5C 589.308,116.082 589.975,114.082 589.5,111.5 Z"/></g>
<g><path style="opacity:0.069" fill="#a9d2e3" d="M 659.5,71.5 C 660.906,71.9731 661.573,72.9731 661.5,74.5C 660.662,74.8417 660.328,75.5084 660.5,76.5C 660.171,89.3443 660.505,102.011 661.5,114.5C 661.5,121.5 661.5,128.5 661.5,135.5C 660.167,135.5 658.833,135.5 657.5,135.5C 659.452,114.33 660.118,92.9966 659.5,71.5 Z"/></g>
<g><path style="opacity:0.125" fill="#acd5e6" d="M 473.5,113.5 C 474.167,113.5 474.833,113.5 475.5,113.5C 475.795,115.735 475.461,117.735 474.5,119.5C 473.539,117.735 473.205,115.735 473.5,113.5 Z"/></g>
<g><path style="opacity:0.059" fill="#f3f5f1" d="M 665.5,115.5 C 666.492,115.328 667.158,115.662 667.5,116.5C 667.5,117.5 667.5,118.5 667.5,119.5C 665.824,118.817 665.157,117.483 665.5,115.5 Z"/></g>
<g><path style="opacity:0.047" fill="#d0e3ea" d="M 718.5,114.5 C 718.279,117.067 717.612,119.401 716.5,121.5C 715.99,118.612 716.656,116.279 718.5,114.5 Z"/></g>
<g><path style="opacity:0.004" fill="#e5eef1" d="M 325.5,117.5 C 326.117,117.611 326.617,117.944 327,118.5C 327.667,122.833 327.667,127.167 327,131.5C 326.617,132.056 326.117,132.389 325.5,132.5C 325.5,127.5 325.5,122.5 325.5,117.5 Z"/></g>
<g><path style="opacity:0.718" fill="#56b1d6" d="M 695.5,112.5 C 696.128,119.913 695.461,126.913 693.5,133.5C 692.872,126.087 693.539,119.087 695.5,112.5 Z"/></g>
<g><path style="opacity:0.335" fill="#84c3de" d="M 612.5,103.5 C 614.265,102.539 616.265,102.205 618.5,102.5C 618.827,112.348 618.494,122.014 617.5,131.5C 616.507,123.016 616.174,114.349 616.5,105.5C 615.817,103.824 614.483,103.157 612.5,103.5 Z"/></g>
<g><path style="opacity:0.343" fill="#7abfdc" d="M 88.5,113.5 C 89.6822,117.577 89.3489,121.577 87.5,125.5C 87.1667,125.5 86.8333,125.5 86.5,125.5C 87.1086,121.395 87.7752,117.395 88.5,113.5 Z"/></g>
<g><path style="opacity:0.736" fill="#51afd6" d="M 236.5,109.5 C 238.131,113.232 239.131,117.232 239.5,121.5C 239.5,125.833 239.5,130.167 239.5,134.5C 243.785,133.705 248.119,133.372 252.5,133.5C 251.833,134.167 251.167,134.833 250.5,135.5C 245.901,135.8 241.401,135.467 237,134.5C 236.5,126.173 236.334,117.84 236.5,109.5 Z"/></g>
<g><path style="opacity:0.018" fill="#b9d9e6" d="M 394.5,114.5 C 395.117,114.611 395.617,114.944 396,115.5C 396.497,118.146 396.664,120.813 396.5,123.5C 394.656,121.721 393.99,119.388 394.5,116.5C 394.5,115.833 394.5,115.167 394.5,114.5 Z"/></g>
<g><path style="opacity:0.393" fill="#3ba6d2" d="M 525.5,33.5 C 525.833,33.5 526.167,33.5 526.5,33.5C 526.5,37.5 526.5,41.5 526.5,45.5C 526.5,48.5 526.5,51.5 526.5,54.5C 522.5,54.5 518.5,54.5 514.5,54.5C 514.5,60.1667 514.5,65.8333 514.5,71.5C 513.854,83.8799 514.521,95.8799 516.5,107.5C 516.5,116.167 516.5,124.833 516.5,133.5C 507.833,133.5 499.167,133.5 490.5,133.5C 490.5,132.833 490.5,132.167 490.5,131.5C 490.303,123.941 490.303,116.274 490.5,108.5C 491.167,105.5 491.833,102.5 492.5,99.5C 492.128,110.499 491.794,121.499 491.5,132.5C 498.833,132.5 506.167,132.5 513.5,132.5C 513.5,106.167 513.5,79.8333 513.5,53.5C 517.167,53.5 520.833,53.5 524.5,53.5C 525.276,46.8627 525.609,40.1961 525.5,33.5 Z"/></g>
<g><path style="opacity:0.809" fill="#42a9d3" d="M 283.5,77.5 C 282.911,81.9707 283.577,85.9707 285.5,89.5C 285.829,104.343 285.496,119.01 284.5,133.5C 276.833,133.5 269.167,133.5 261.5,133.5C 260.51,127.69 260.177,121.69 260.5,115.5C 260.833,115.5 261.167,115.5 261.5,115.5C 261.266,121.308 261.933,126.974 263.5,132.5C 269.833,132.5 276.167,132.5 282.5,132.5C 282.465,124.614 283.131,116.78 284.5,109C 282.565,98.3821 282.231,87.8821 283.5,77.5 Z"/></g>
<g><path style="opacity:0.008" fill="#ebefef" d="M 566.5,109.5 C 567.167,109.5 567.833,109.5 568.5,109.5C 568.5,116.833 568.5,124.167 568.5,131.5C 566.537,124.576 565.87,117.243 566.5,109.5 Z"/></g>
<g><path style="opacity:0.273" fill="#9bcde1" d="M 752.5,114.5 C 753.167,117.167 753.833,119.833 754.5,122.5C 755.08,126.649 754.414,130.316 752.5,133.5C 752.5,127.167 752.5,120.833 752.5,114.5 Z"/></g>
<g><path style="opacity:0.438" fill="#91c9df" d="M 371.5,104.5 C 372.494,113.986 372.827,123.652 372.5,133.5C 371.833,133.5 371.167,133.5 370.5,133.5C 370.194,123.75 370.527,114.084 371.5,104.5 Z"/></g>
<g><path style="opacity:0.216" fill="#86c3dd" d="M 423.5,116.5 C 424.485,120.634 424.818,124.968 424.5,129.5C 422.967,127.366 422.3,124.866 422.5,122C 422.506,119.967 422.839,118.134 423.5,116.5 Z"/></g>
<g><path style="opacity:0.008" fill="#fbf9f4" d="M 84.5,126.5 C 84.6641,129.187 84.4974,131.854 84,134.5C 83.6174,135.056 83.1174,135.389 82.5,135.5C 82.5,132.833 82.5,130.167 82.5,127.5C 83.1667,127.167 83.8333,126.833 84.5,126.5 Z"/></g>
<g><path style="opacity:0.356" fill="#8dc8df" d="M 255.5,116.5 C 255.5,122.833 255.5,129.167 255.5,135.5C 253.833,135.5 252.167,135.5 250.5,135.5C 251.167,134.833 251.833,134.167 252.5,133.5C 253.482,130.038 253.815,126.371 253.5,122.5C 254.167,120.5 254.833,118.5 255.5,116.5 Z"/></g>
<g><path style="opacity:0.504" fill="#56b2d6" d="M 301.5,90.5 C 302.712,104.677 302.712,119.011 301.5,133.5C 309.5,133.5 317.5,133.5 325.5,133.5C 317.231,135.47 308.565,136.136 299.5,135.5C 299.5,127.5 299.5,119.5 299.5,111.5C 301.461,104.913 302.128,97.9131 301.5,90.5 Z"/></g>
<g><path style="opacity:0.807" fill="#52b0d5" d="M 394.5,116.5 C 393.99,119.388 394.656,121.721 396.5,123.5C 396.5,126.833 396.5,130.167 396.5,133.5C 395.5,133.5 394.5,133.5 393.5,133.5C 393.178,127.642 393.511,121.975 394.5,116.5 Z"/></g>
<g><path style="opacity:0.156" fill="#c1dce7" d="M 86.5,125.5 C 86.8333,125.5 87.1667,125.5 87.5,125.5C 87.5,127.833 87.5,130.167 87.5,132.5C 87.5,133.5 87.5,134.5 87.5,135.5C 86.3065,135.03 85.6399,134.03 85.5,132.5C 85.9971,130.182 86.3305,127.848 86.5,125.5 Z"/></g>
<g><path style="opacity:0.022" fill="#fffef8" d="M 139.5,130.5 C 141.985,131.74 141.985,132.74 139.5,133.5C 139.5,132.5 139.5,131.5 139.5,130.5 Z"/></g>
<g><path style="opacity:0.314" fill="#87c4de" d="M 148.5,130.5 C 151.518,130.704 154.518,131.037 157.5,131.5C 157.5,132.167 157.5,132.833 157.5,133.5C 154.008,133.554 151.008,132.554 148.5,130.5 Z"/></g>
<g><path style="opacity:0.024" fill="#c7e0ea" d="M 428.5,127.5 C 431.427,128.097 433.427,129.764 434.5,132.5C 432.227,131.233 430.227,129.567 428.5,127.5 Z"/></g>
<g><path style="opacity:0.022" fill="#f5f8f9" d="M 490.5,131.5 C 490.5,132.167 490.5,132.833 490.5,133.5C 490.5,134.167 490.5,134.833 490.5,135.5C 487.978,133.998 487.978,132.665 490.5,131.5 Z"/></g>
<g><path style="opacity:0.932" fill="#49a8d2" d="M 667.5,123.5 C 668.798,126.273 670.131,129.106 671.5,132C 674.794,132.346 677.961,133.179 681,134.5C 684.527,132.551 688.027,132.217 691.5,133.5C 689.219,133.077 687.552,133.744 686.5,135.5C 680.5,135.5 674.5,135.5 668.5,135.5C 668.167,131.5 667.833,127.5 667.5,123.5 Z"/></g>
<g><path style="opacity:0.083" fill="#e0ebef" d="M 32.5,133.5 C 39.5,133.5 46.5,133.5 53.5,133.5C 53.3893,134.117 53.056,134.617 52.5,135C 46.1667,135.667 39.8333,135.667 33.5,135C 32.944,134.617 32.6107,134.117 32.5,133.5 Z"/></g>
<g><path style="opacity:0.037" fill="#e1ebee" d="M 587.5,128.5 C 587.5,130.833 587.5,133.167 587.5,135.5C 586.5,134.167 585.5,134.167 584.5,135.5C 584.5,134.833 584.5,134.167 584.5,133.5C 584.5,133.167 584.5,132.833 584.5,132.5C 584.833,132.5 585.167,132.5 585.5,132.5C 586.316,131.843 586.983,130.51 587.5,128.5 Z"/></g>
<g><path style="opacity:0.416" fill="#8bc6de" d="M 691.5,133.5 C 691.833,133.5 692.167,133.5 692.5,133.5C 691.082,135.308 689.082,135.975 686.5,135.5C 687.552,133.744 689.219,133.077 691.5,133.5 Z"/></g>
<g><path style="opacity:0.401" fill="#8ac6de" d="M 730.5,130.5 C 731.404,131.209 731.737,132.209 731.5,133.5C 737.5,133.5 743.5,133.5 749.5,133.5C 747.833,134.167 746.167,134.833 744.5,135.5C 739.833,135.5 735.167,135.5 730.5,135.5C 730.5,133.833 730.5,132.167 730.5,130.5 Z"/></g>
<g><path style="opacity:0.012" fill="#e3edf0" d="M 62.5,133.5 C 62.8333,133.5 63.1667,133.5 63.5,133.5C 64.8333,133.5 66.1667,133.5 67.5,133.5C 67.5,134.167 67.5,134.833 67.5,135.5C 65.302,135.88 63.6354,135.213 62.5,133.5 Z"/></g>
<g><path style="opacity:0.104" fill="#63b5d8" d="M 103.5,116.5 C 103.347,122.845 103.014,129.178 102.5,135.5C 97.5,135.5 92.5,135.5 87.5,135.5C 87.5,134.5 87.5,133.5 87.5,132.5C 91.5,132.5 95.5,132.5 99.5,132.5C 100.603,126.94 101.937,121.607 103.5,116.5 Z"/></g>
<g><path style="opacity:0.075" fill="#86c5dd" d="M 117.5,133.5 C 123.167,133.5 128.833,133.5 134.5,133.5C 133.167,134.167 131.833,134.833 130.5,135.5C 125.706,136.097 121.373,135.43 117.5,133.5 Z"/></g>
<g><path style="opacity:0.029" fill="#e2eaed" d="M 134.5,133.5 C 135.833,133.5 137.167,133.5 138.5,133.5C 138.389,134.117 138.056,134.617 137.5,135C 135.19,135.497 132.857,135.663 130.5,135.5C 131.833,134.833 133.167,134.167 134.5,133.5 Z"/></g>
<g><path style="opacity:0.075" fill="#96cbe0" d="M 157.5,133.5 C 162.294,132.903 166.627,133.57 170.5,135.5C 166.486,135.666 162.486,135.499 158.5,135C 157.944,134.617 157.611,134.117 157.5,133.5 Z"/></g>
<g><path style="opacity:0.079" fill="#85c4dd" d="M 199.5,133.5 C 207.5,133.5 215.5,133.5 223.5,133.5C 219.893,134.824 215.893,135.491 211.5,135.5C 207.107,135.491 203.107,134.824 199.5,133.5 Z"/></g>
<g><path style="opacity:0.055" fill="#c7dfe8" d="M 261.5,133.5 C 269.167,133.5 276.833,133.5 284.5,133.5C 281.062,134.823 277.229,135.49 273,135.5C 268.771,135.49 264.938,134.823 261.5,133.5 Z"/></g>
<g><path style="opacity:0.046" fill="#b1d6e5" d="M 370.5,133.5 C 371.167,133.5 371.833,133.5 372.5,133.5C 379.5,133.5 386.5,133.5 393.5,133.5C 394.5,133.5 395.5,133.5 396.5,133.5C 396.389,134.117 396.056,134.617 395.5,135C 387.5,135.667 379.5,135.667 371.5,135C 370.944,134.617 370.611,134.117 370.5,133.5 Z"/></g>
<g><path style="opacity:0.075" fill="#a0cfe2" d="M 406.5,122.5 C 407.325,126.926 408.658,131.26 410.5,135.5C 409.178,135.67 408.011,135.337 407,134.5C 406.501,130.514 406.334,126.514 406.5,122.5 Z"/></g>
<g><path style="opacity:0.192" fill="#5bb2d6" d="M 469.5,130.5 C 468.022,132.364 466.022,133.697 463.5,134.5C 455.855,135.665 448.188,135.831 440.5,135C 439.944,134.617 439.611,134.117 439.5,133.5C 445.702,133.273 451.869,133.606 458,134.5C 461.598,132.467 465.432,131.134 469.5,130.5 Z"/></g>
<g><path style="opacity:0.103" fill="#62b6d8" d="M 490.5,133.5 C 499.167,133.5 507.833,133.5 516.5,133.5C 516.389,134.117 516.056,134.617 515.5,135C 507.173,135.5 498.84,135.666 490.5,135.5C 490.5,134.833 490.5,134.167 490.5,133.5 Z"/></g>
<g><path style="opacity:0.078" fill="#9bcce0" d="M 529.5,101.5 C 531.476,111.781 532.143,122.448 531.5,133.5C 538.833,133.5 546.167,133.5 553.5,133.5C 553.5,133.833 553.5,134.167 553.5,134.5C 545.765,135.827 537.932,135.827 530,134.5C 529.5,123.505 529.333,112.505 529.5,101.5 Z"/></g>
<g><path style="opacity:0.137" fill="#5ab3d7" d="M 584.5,133.5 C 584.5,134.167 584.5,134.833 584.5,135.5C 578.974,135.821 573.64,135.488 568.5,134.5C 573.797,133.725 579.13,133.392 584.5,133.5 Z"/></g>
<g><path style="opacity:0.147" fill="#6fbbda" d="M 604.5,119.5 C 604.242,124.566 603.575,129.566 602.5,134.5C 597.544,135.494 592.544,135.827 587.5,135.5C 587.5,133.167 587.5,130.833 587.5,128.5C 587.833,128.5 588.167,128.5 588.5,128.5C 588.5,130.5 588.5,132.5 588.5,134.5C 592.824,134.073 597.158,133.739 601.5,133.5C 601.584,128.385 602.584,123.718 604.5,119.5 Z"/></g>
<g><path style="opacity:0.075" fill="#87c5dd" d="M 617.5,133.5 C 623.5,133.5 629.5,133.5 635.5,133.5C 633.833,134.167 632.167,134.833 630.5,135.5C 625.706,136.097 621.373,135.43 617.5,133.5 Z"/></g>
<g><path style="opacity:0.027" fill="#e4ebee" d="M 635.5,133.5 C 636.833,133.5 638.167,133.5 639.5,133.5C 639.389,134.117 639.056,134.617 638.5,135C 635.854,135.497 633.187,135.664 630.5,135.5C 632.167,134.833 633.833,134.167 635.5,133.5 Z"/></g>
<g><path style="opacity:0.102" fill="#6ab9d9" d="M 701.5,120.5 C 702.485,124.634 702.818,128.968 702.5,133.5C 706.5,133.5 710.5,133.5 714.5,133.5C 713.911,129.029 714.577,125.029 716.5,121.5C 716.647,126.214 716.314,130.881 715.5,135.5C 710.5,135.5 705.5,135.5 700.5,135.5C 700.221,130.405 700.555,125.405 701.5,120.5 Z"/></g>
<g><path style="opacity:0.025" fill="#e6ecee" d="M 749.5,133.5 C 750.167,133.5 750.833,133.5 751.5,133.5C 751.389,134.117 751.056,134.617 750.5,135C 748.527,135.495 746.527,135.662 744.5,135.5C 746.167,134.833 747.833,134.167 749.5,133.5 Z"/></g>
</svg>
